<svg width="98" height="34" viewBox="0 0 98 34" fill="none" xmlns="http://www.w3.org/2000/svg">
<path d="M40.032 8.84V15.344H39.984C39.264 14.288 38.112 13.424 36.144 13.424C33.072 13.424 30.624 15.848 30.624 19.88C30.624 23.912 33.072 26.336 36.144 26.336C38.112 26.336 39.264 25.424 39.984 24.488H40.032V26H41.952V8.84H40.032ZM36.336 24.656C33.816 24.656 32.544 22.28 32.544 19.88C32.544 17.48 33.816 15.104 36.336 15.104C38.616 15.104 40.032 17 40.032 19.88C40.032 22.76 38.616 24.656 36.336 24.656ZM45.5513 11.384C46.1033 11.384 46.7513 10.976 46.7513 10.232C46.7513 9.488 46.1033 9.08 45.5513 9.08C45.0233 9.08 44.3513 9.488 44.3513 10.232C44.3513 10.976 45.0233 11.384 45.5513 11.384ZM44.5913 13.76V26H46.5113V13.76H44.5913ZM56.8783 16.88C56.8783 18.104 55.9423 18.368 53.8783 18.752C50.7103 19.352 48.6463 20.072 48.6463 22.856C48.6463 24.92 50.2063 26.336 52.6783 26.336C54.6943 26.336 56.0623 25.616 56.8303 24.464H56.8783C57.2143 25.808 57.9103 26.12 59.0623 26.12C59.4223 26.12 59.6863 26.096 60.1903 25.928V24.584C58.9663 24.728 58.7983 24.2 58.7983 23.24V17.288C58.7983 14.336 56.7103 13.424 54.3823 13.424C50.8303 13.424 49.3663 15.2 49.2463 17.552H51.1663C51.2863 15.776 52.0543 15.104 54.3823 15.104C56.3503 15.104 56.8783 15.92 56.8783 16.88ZM52.8703 24.656C51.2863 24.656 50.5663 23.96 50.5663 22.76C50.5663 21.296 51.6703 20.696 54.0463 20.192C55.3423 19.928 56.5183 19.592 56.8783 19.232V21.272C56.8783 23.624 55.1503 24.656 52.8703 24.656ZM61.6967 8.84V26H63.6167V8.84H61.6967ZM71.5436 24.656C68.8796 24.656 67.5596 22.592 67.5596 20.384H77.2316C77.2316 16.04 75.3596 13.424 71.5196 13.424C67.9436 13.424 65.6396 15.8 65.6396 19.88C65.6396 23.72 67.8956 26.336 71.6156 26.336C74.6636 26.336 76.4156 24.512 77.0396 22.232H75.1196C74.9036 23.072 73.9916 24.656 71.5436 24.656ZM71.5196 15.104C73.8236 15.104 75.3116 16.736 75.3116 18.704H67.5596C67.5596 16.736 69.2156 15.104 71.5196 15.104ZM87.8205 18.176H89.7405C89.4525 15.44 87.3885 13.424 84.3645 13.424C80.7885 13.424 78.4365 16.04 78.4365 19.88C78.4365 23.72 80.7885 26.336 84.3645 26.336C87.3885 26.336 89.5725 24.272 89.7405 21.488H87.8205C87.7245 22.952 86.8365 24.656 84.3645 24.656C81.4605 24.656 80.3565 22.184 80.3565 19.88C80.3565 17.576 81.4605 15.104 84.3645 15.104C86.8125 15.104 87.7245 16.832 87.8205 18.176ZM96.9058 15.44V13.76H94.5058V9.68H92.5858V13.76H90.7858V15.44H92.5858V23C92.5858 25.496 93.8338 26.144 95.4658 26.144C95.9698 26.144 96.4738 26.096 96.9058 26V24.32C95.2738 24.44 94.5058 24.2 94.5058 22.808V15.44H96.9058Z" fill="#003D31"/>
<path d="M13 29C19.6274 29 25 23.6274 25 17C25 10.3726 19.6274 5 13 5C6.37258 5 1 10.3726 1 17C1 23.6274 6.37258 29 13 29Z" fill="#FFFAA4" stroke="#003D31" stroke-width="1.5" stroke-miterlimit="10" stroke-linecap="round" stroke-linejoin="round"/>
<path d="M13 29C16.5567 29 19.44 23.6274 19.44 17C19.44 10.3726 16.5567 5 13 5C9.44328 5 6.56 10.3726 6.56 17C6.56 23.6274 9.44328 29 13 29Z" stroke="#003D31" stroke-width="1.5" stroke-miterlimit="10" stroke-linecap="round" stroke-linejoin="round"/>
<path d="M2 21.8H24M2 12.2H24M13 5V29" stroke="#003D31" stroke-width="1.5" stroke-miterlimit="10" stroke-linecap="round" stroke-linejoin="round"/>
</svg>
