<svg width="23" height="40" viewBox="0 0 23 40" fill="none" xmlns="http://www.w3.org/2000/svg">
<path d="M10.5658 0.308393C10.9233 0.2532 11.2844 0.225151 11.6461 0.224487C14.1633 0.224487 16.5819 0.40069 18.6166 1.98651C20.5254 3.47371 21.9409 5.50254 22.6776 7.80747C22.1313 7.62834 21.6059 7.39062 21.1107 7.09846C21.5994 7.38584 22.3294 11.7133 20.9009 16.24L1.33619 16.0093C1.22082 15.6065 1.40122 15.1324 1.418 14.7318C1.40752 14.2855 1.34128 13.8422 1.22082 13.4124C0.982776 12.298 0.84865 11.1639 0.820169 10.0247C0.794997 8.20602 1.2397 6.47966 1.91724 4.81413C2.32208 3.82404 2.80035 2.80039 3.67296 2.18369C4.54558 1.56698 5.93003 1.55439 6.55303 2.41653C7.61801 1.28586 9.03051 0.543798 10.5658 0.308393Z" fill="#725858"/>
<path d="M20.8988 16.4434L1.33617 16.219C1.29087 16.2184 1.24698 16.2032 1.21106 16.1756C1.17514 16.148 1.14912 16.1095 1.13689 16.0658C1.07377 15.7572 1.08022 15.4383 1.15577 15.1324C1.18348 14.994 1.2017 14.8538 1.21031 14.7129C1.21002 14.3827 1.1663 14.0541 1.08026 13.7354C1.05928 13.6389 1.03621 13.5403 1.01733 13.4417C0.776377 12.3149 0.640845 11.1682 0.612484 10.0162C0.58941 8.33813 0.952303 6.60548 1.72424 4.72389C2.12489 3.75059 2.62832 2.65562 3.55548 1.99696C4.4218 1.38444 5.80834 1.30054 6.56559 2.08715C7.64105 1.01753 9.02868 0.317475 10.528 0.0881014C10.896 0.0318364 11.2676 0.00239139 11.6398 0C14.0668 0 16.6133 0.148933 18.7403 1.80607C20.6839 3.32335 22.1259 5.39033 22.879 7.7382C22.8906 7.77509 22.8919 7.81448 22.8825 7.85202C22.8732 7.88956 22.8537 7.92379 22.8261 7.95093C22.7985 7.97806 22.764 7.99705 22.7263 8.00578C22.6886 8.01451 22.6493 8.01265 22.6126 8.00041C22.2634 7.8826 21.9222 7.74246 21.591 7.58088C22.0546 9.0744 22.2203 12.7201 21.1002 16.2903C21.0878 16.3343 21.0615 16.373 21.0252 16.4006C20.9888 16.4283 20.9444 16.4433 20.8988 16.4434ZM1.51447 15.8015L20.7457 16.0113C22.0882 11.6272 21.3959 7.59347 21.0016 7.25994C20.9547 7.23124 20.9209 7.18525 20.9076 7.13189C20.8942 7.07853 20.9024 7.02207 20.9303 6.97466C20.9586 6.92682 21.0048 6.89222 21.0587 6.87845C21.1126 6.86468 21.1698 6.87288 21.2176 6.90125C21.5771 7.11313 21.9531 7.29552 22.342 7.44663C21.5791 5.35156 20.2414 3.51377 18.4823 2.14379C16.4602 0.568461 13.9933 0.432115 11.6398 0.425822H11.6251C11.2795 0.426998 10.9345 0.454346 10.5931 0.50763C9.10412 0.737476 7.73579 1.46154 6.70823 2.56332C6.68705 2.58625 6.66101 2.60416 6.63202 2.61574C6.60303 2.62733 6.57182 2.6323 6.54067 2.63029C6.50951 2.62828 6.4792 2.61934 6.45194 2.60412C6.42468 2.58891 6.40116 2.5678 6.3831 2.54234C5.82093 1.75573 4.56864 1.81446 3.7967 2.35985C2.95765 2.94929 2.50665 3.93728 2.11859 4.898C1.36763 6.72504 1.01523 8.40316 1.03831 10.0246C1.06673 11.1532 1.19945 12.2767 1.43476 13.3809C1.45364 13.4774 1.47461 13.5717 1.49559 13.6661C1.59092 14.0197 1.63819 14.3845 1.63613 14.7506C1.62619 14.9063 1.60587 15.0612 1.5753 15.2142C1.53269 15.407 1.51228 15.6041 1.51447 15.8015Z" fill="#003D31"/>
<path d="M21.9875 32.2114V36.0312C20.969 36.8572 19.8573 37.5611 18.6753 38.1289C18.2795 38.3205 17.8754 38.4953 17.4629 38.6533C16.7204 38.9426 15.9576 39.1768 15.1806 39.3539C14.9541 39.4084 14.7275 39.4546 14.4968 39.4944C14.0227 39.5853 13.541 39.6553 13.0515 39.7042C12.632 39.7482 12.1915 39.7713 11.7531 39.7797C11.6356 39.7797 11.5202 39.7797 11.4028 39.7797C11.2853 39.7797 11.1552 39.7797 11.0336 39.7797C10.6015 39.7713 10.175 39.7462 9.75402 39.7042C9.26597 39.658 8.78421 39.5881 8.30875 39.4944C8.07801 39.4546 7.85146 39.4084 7.62491 39.3539C6.84874 39.1774 6.08663 38.9439 5.34478 38.6554C4.93364 38.496 4.52949 38.3212 4.13234 38.131C2.95029 37.5632 1.83868 36.8593 0.82016 36.0333V32.2114C0.82016 27.498 4.02536 23.674 7.98151 23.674H14.824C18.7823 23.674 21.9875 27.498 21.9875 32.2114Z" fill="#FF7D7D"/>
<path d="M11.4049 39.9916C11.279 39.9916 11.1531 39.9916 11.0294 39.9916C10.6099 39.9916 10.1672 39.958 9.73513 39.9139C9.25058 39.8678 8.75763 39.7986 8.26678 39.7042C8.02136 39.6601 7.79482 39.614 7.57246 39.5615C6.78712 39.3816 6.01593 39.1447 5.26506 38.8525C4.84553 38.6868 4.426 38.5085 4.03794 38.3218C2.84005 37.7462 1.71365 37.0323 0.68171 36.1948C0.657648 36.1753 0.638208 36.1507 0.624788 36.1228C0.611369 36.0948 0.6043 36.0643 0.604095 36.0333V32.2114C0.604095 27.3868 3.90998 23.4642 7.97521 23.4642H14.8177C18.883 23.4642 22.1888 27.3889 22.1888 32.2114V36.0312C22.1886 36.0622 22.1816 36.0927 22.1681 36.1207C22.1547 36.1486 22.1353 36.1732 22.1112 36.1927C21.0793 37.0302 19.9529 37.7441 18.755 38.3197C18.3711 38.5064 17.9579 38.6847 17.5279 38.8504C16.7771 39.1428 16.0059 39.3797 15.2205 39.5594C15.0002 39.6119 14.7737 39.658 14.5262 39.7021C14.0416 39.7923 13.5487 39.8615 13.0578 39.9119C12.6383 39.9559 12.202 39.9811 11.7447 39.9895C11.6419 39.9895 11.5244 39.9916 11.4049 39.9916ZM1.03202 35.9305C2.0175 36.7196 3.08924 37.3945 4.22673 37.9422C4.6022 38.1226 5.00495 38.2967 5.42448 38.4603C6.15602 38.7454 6.90762 38.9761 7.67315 39.1504C7.88292 39.2008 8.10736 39.2469 8.3465 39.2889C8.82266 39.377 9.30302 39.4462 9.77709 39.4986C10.1966 39.5427 10.6161 39.5678 11.0357 39.5741C11.2727 39.5741 11.5076 39.5741 11.7447 39.5741C12.1936 39.5741 12.6236 39.5406 13.0263 39.4986C13.5025 39.4546 13.9829 39.3853 14.4569 39.2889C14.6982 39.2469 14.9184 39.2008 15.1303 39.1504C15.8966 38.9763 16.6489 38.7457 17.381 38.4603C17.8006 38.2967 18.2033 38.1226 18.5788 37.9422C19.7163 37.3945 20.788 36.7196 21.7735 35.9305V32.2114C21.7735 27.6197 18.6543 23.8838 14.8219 23.8838H7.9836C4.15121 23.8838 1.03202 27.6197 1.03202 32.2114V35.9305Z" fill="#003D31"/>
<path d="M10.3561 35.4817C10.3258 35.4817 10.2958 35.4751 10.2683 35.4624C10.2408 35.4497 10.2163 35.4313 10.1966 35.4082L5.59441 30.0089C5.55903 29.9674 5.54121 29.9137 5.54474 29.8593C5.54826 29.8049 5.57285 29.7539 5.61329 29.7173L7.59766 27.8924L5.36367 27.0785C5.33239 27.0671 5.30429 27.0484 5.28167 27.0239C5.25906 26.9995 5.24259 26.97 5.23362 26.938C5.22473 26.9061 5.22352 26.8725 5.23008 26.8401C5.23665 26.8076 5.2508 26.7772 5.27137 26.7513L7.83889 23.5398C7.8738 23.4969 7.92425 23.4695 7.97925 23.4636C8.03425 23.4577 8.08935 23.4738 8.13256 23.5083C8.17578 23.5429 8.20357 23.5932 8.20985 23.6482C8.21614 23.7032 8.20042 23.7585 8.16612 23.802L5.78949 26.7806L8.07382 27.6197C8.10735 27.6322 8.13712 27.6531 8.16029 27.6804C8.18346 27.7077 8.19926 27.7404 8.2062 27.7755C8.21314 27.8106 8.21098 27.8469 8.19992 27.881C8.18887 27.915 8.16929 27.9457 8.14305 27.97L6.0454 29.8914L10.5155 35.1355C10.5415 35.166 10.5583 35.2033 10.5638 35.243C10.5694 35.2828 10.5634 35.3232 10.5466 35.3596C10.5298 35.3961 10.503 35.4269 10.4692 35.4485C10.4354 35.4702 10.3962 35.4817 10.3561 35.4817Z" fill="#003D31"/>
<path d="M12.4537 35.4817C12.4136 35.4817 12.3743 35.4702 12.3406 35.4485C12.3068 35.4269 12.2799 35.3961 12.2632 35.3596C12.2464 35.3232 12.2404 35.2828 12.2459 35.243C12.2514 35.2033 12.2682 35.166 12.2943 35.1355L16.7644 29.8914L14.6667 27.97C14.6405 27.9457 14.6209 27.915 14.6098 27.881C14.5988 27.8469 14.5966 27.8106 14.6036 27.7755C14.6105 27.7404 14.6263 27.7077 14.6495 27.6804C14.6727 27.6531 14.7024 27.6322 14.7359 27.6197L17.0203 26.7806L14.6436 23.802C14.6093 23.7585 14.5936 23.7032 14.5999 23.6482C14.6062 23.5932 14.634 23.5429 14.6772 23.5083C14.7204 23.4738 14.7755 23.4577 14.8305 23.4636C14.8855 23.4695 14.936 23.4969 14.9709 23.5398L17.53 26.7471C17.5506 26.773 17.5647 26.8034 17.5713 26.8359C17.5779 26.8683 17.5766 26.9019 17.5678 26.9338C17.5588 26.9658 17.5423 26.9953 17.5197 27.0197C17.4971 27.0442 17.469 27.0629 17.4377 27.0743L15.2037 27.8882L17.1881 29.7131C17.2285 29.7497 17.2531 29.8007 17.2566 29.8551C17.2602 29.9095 17.2423 29.9632 17.207 30.0047L12.6047 35.404C12.5864 35.4268 12.5634 35.4454 12.5374 35.4588C12.5114 35.4722 12.4829 35.48 12.4537 35.4817Z" fill="#003D31"/>
<path d="M9.87573 23.6698V21.998H12.7789V23.6698" fill="#FFC9B0"/>
<path d="M12.7789 23.8796C12.7232 23.8796 12.6699 23.8575 12.6305 23.8181C12.5912 23.7788 12.5691 23.7254 12.5691 23.6698V22.2014H10.0855V23.6698C10.0855 23.7254 10.0634 23.7788 10.024 23.8181C9.98471 23.8575 9.93135 23.8796 9.87572 23.8796C9.82009 23.8796 9.76673 23.8575 9.72739 23.8181C9.68805 23.7788 9.66595 23.7254 9.66595 23.6698V21.9917C9.66595 21.9361 9.68805 21.8827 9.72739 21.8434C9.76673 21.804 9.82009 21.7819 9.87572 21.7819H12.7789C12.8345 21.7819 12.8878 21.804 12.9272 21.8434C12.9665 21.8827 12.9886 21.9361 12.9886 21.9917V23.6698C12.9886 23.7254 12.9665 23.7788 12.9272 23.8181C12.8878 23.8575 12.8345 23.8796 12.7789 23.8796Z" fill="#003D31"/>
<path d="M3.03111 16.8881C4.58928 16.8881 5.85244 15.7996 5.85244 14.4569C5.85244 13.1142 4.58928 12.0258 3.03111 12.0258C1.47293 12.0258 0.209778 13.1142 0.209778 14.4569C0.209778 15.7996 1.47293 16.8881 3.03111 16.8881Z" fill="#FFC9B0"/>
<path d="M3.03109 17.0979C1.35298 17.0979 0 15.9127 0 14.4569C0 13.0012 1.35927 11.8181 3.03109 11.8181C4.70291 11.8181 6.06009 13.0012 6.06009 14.4569C6.06009 15.9127 4.69243 17.0979 3.03109 17.0979ZM3.03109 12.2376C1.59001 12.2376 0.419529 13.234 0.419529 14.4569C0.419529 15.6799 1.59001 16.6784 3.03109 16.6784C4.47217 16.6784 5.64056 15.682 5.64056 14.4569C5.64056 13.2319 4.47008 12.2376 3.03109 12.2376Z" fill="#003D31"/>
<path d="M19.4745 16.8881C21.0327 16.8881 22.2958 15.7996 22.2958 14.4569C22.2958 13.1142 21.0327 12.0258 19.4745 12.0258C17.9163 12.0258 16.6532 13.1142 16.6532 14.4569C16.6532 15.7996 17.9163 16.8881 19.4745 16.8881Z" fill="#FFC9B0"/>
<path d="M19.4745 17.0979C17.7964 17.0979 16.4434 15.9127 16.4434 14.4569C16.4434 13.0012 17.8027 11.8181 19.4745 11.8181C21.1463 11.8181 22.5035 13.0012 22.5035 14.4569C22.5035 15.9127 21.1442 17.0979 19.4745 17.0979ZM19.4745 12.2376C18.0334 12.2376 16.8629 13.234 16.8629 14.4569C16.8629 15.6799 18.0334 16.6784 19.4745 16.6784C20.9156 16.6784 22.084 15.682 22.084 14.4569C22.084 13.2319 20.9135 12.2376 19.4745 12.2376Z" fill="#003D31"/>
<path d="M11.3273 22.3797C9.07078 22.3797 6.90673 21.4834 5.31116 19.8878C3.71559 18.2922 2.81921 16.1282 2.81921 13.8717V10.7798C2.81938 10.2742 2.92578 9.77435 3.13154 9.31256C3.33729 8.85077 3.6378 8.43738 4.01357 8.09918C4.38935 7.76098 4.832 7.50553 5.31284 7.34939C5.79367 7.19325 6.30196 7.1399 6.80474 7.19281C8.58354 7.38579 9.04082 8.47866 12.009 8.53111C13.234 8.55208 14.3877 7.15086 15.4114 6.96207C15.918 6.86931 16.4386 6.8861 16.9382 7.01131C17.4378 7.13653 17.9049 7.36726 18.3079 7.68799C18.7109 8.00873 19.0405 8.41204 19.2747 8.8708C19.5088 9.32956 19.6421 9.83313 19.6654 10.3477L19.8248 13.8717C19.8254 16.1265 18.9306 18.2893 17.3372 19.8847C15.7438 21.4801 13.5821 22.3775 11.3273 22.3797Z" fill="#FFC9B0"/>
<path d="M11.3272 22.5895C9.01599 22.5867 6.80019 21.6674 5.16589 20.0331C3.53158 18.3988 2.61221 16.183 2.60944 13.8717V10.7798C2.60926 10.2439 2.72196 9.71403 2.94019 9.22462C3.15842 8.73521 3.4773 8.29725 3.87604 7.93927C4.27479 7.58129 4.74446 7.31131 5.25449 7.14692C5.76451 6.98253 6.30344 6.92741 6.83619 6.98515C7.47814 7.06769 8.10112 7.25997 8.67792 7.55361C9.71655 8.07107 10.8633 8.33421 12.0237 8.32134C12.6529 8.33813 13.2822 7.90182 13.9115 7.50327C14.4213 7.16345 14.9037 6.8446 15.3904 6.7565C15.9263 6.65833 16.4771 6.67603 17.0057 6.80841C17.5342 6.94078 18.0283 7.18477 18.4548 7.52397C18.8812 7.86316 19.2301 8.28972 19.478 8.77495C19.7259 9.26019 19.867 9.79286 19.8919 10.3372L20.0513 13.8633C20.0508 16.1771 19.1315 18.396 17.4956 20.0323C15.8597 21.6686 13.641 22.5884 11.3272 22.5895ZM6.42715 7.38789C5.52606 7.38845 4.66204 7.74665 4.02488 8.38381C3.38772 9.02097 3.02952 9.88499 3.02896 10.7861V13.878C3.01146 14.9787 3.21314 16.0719 3.62226 17.0939C4.03138 18.1159 4.63976 19.0463 5.41196 19.8309C6.18416 20.6154 7.10476 21.2385 8.12013 21.6639C9.1355 22.0892 10.2253 22.3082 11.3262 22.3082C12.427 22.3082 13.5169 22.0892 14.5322 21.6639C15.5476 21.2385 16.4682 20.6154 17.2404 19.8309C18.0126 19.0463 18.621 18.1159 19.0301 17.0939C19.4392 16.0719 19.6409 14.9787 19.6234 13.878L19.464 10.3624C19.4414 9.87814 19.3155 9.40437 19.0947 8.97285C18.8739 8.54132 18.5633 8.16203 18.1838 7.86043C17.8043 7.55883 17.3647 7.34191 16.8945 7.22423C16.4243 7.10655 15.9343 7.09083 15.4575 7.17813C15.0548 7.25364 14.6184 7.54941 14.1339 7.86196C13.4647 8.30666 12.7704 8.76605 12.0153 8.75136C10.798 8.76202 9.5953 8.48685 8.50381 7.94796C7.96845 7.66787 7.38862 7.48264 6.79004 7.40048C6.66937 7.39007 6.54825 7.38587 6.42715 7.38789Z" fill="#003D31"/>
<path d="M14.3982 23.6699L12.9298 34.3805L12.8354 34.8147L11.7552 39.7714C11.6377 39.7714 11.5223 39.7714 11.4049 39.7714C11.2874 39.7714 11.1573 39.7714 11.0357 39.7714L9.94909 34.7874L9.86099 34.3826L8.39264 23.672L14.3982 23.6699Z" fill="white"/>
<path d="M11.4049 39.9915C11.279 39.9915 11.1532 39.9915 11.0294 39.9915C10.9806 39.9926 10.933 39.9766 10.8947 39.9464C10.8564 39.9161 10.8299 39.8735 10.8196 39.8258L9.73307 34.8418C9.73405 34.8376 9.73405 34.8333 9.73307 34.8292L9.64706 34.4348L8.17871 23.7096V23.6802C8.17871 23.6246 8.20081 23.5712 8.24015 23.5319C8.27949 23.4926 8.33284 23.4705 8.38848 23.4705H14.3919C14.4476 23.4705 14.5009 23.4926 14.5403 23.5319C14.5796 23.5712 14.6017 23.6246 14.6017 23.6802C14.6017 23.6907 14.6017 23.6991 14.6017 23.7096L13.1333 34.4181L13.041 34.867L11.9608 39.8216C11.9505 39.8693 11.924 39.9119 11.8857 39.9422C11.8474 39.9724 11.7998 39.9884 11.751 39.9873C11.6419 39.9894 11.5245 39.9915 11.4049 39.9915ZM11.2056 39.572C11.3315 39.572 11.4594 39.572 11.5853 39.572L12.7264 34.3404L14.157 23.8816H8.6339L10.0687 34.3572L10.1547 34.7474C10.1547 34.7474 10.1547 34.7474 10.1547 34.76L11.2056 39.572Z" fill="#003D31"/>
<path d="M12.9299 34.3846L12.8355 34.8189L11.7552 39.7756C11.6377 39.7756 11.5224 39.7756 11.4049 39.7756C11.2874 39.7756 11.1574 39.7756 11.0357 39.7756L9.94912 34.7916L9.86102 34.3867L10.8092 26.1178L11.0756 23.8104L11.0902 23.6846H11.7007L11.7153 23.8104L11.9817 26.1178L12.9299 34.3846Z" fill="#5CE4CA"/>
<path d="M11.4049 39.9916C11.279 39.9916 11.1532 39.9916 11.0294 39.9916C10.9806 39.9927 10.933 39.9767 10.8947 39.9465C10.8564 39.9162 10.8299 39.8736 10.8197 39.8259L9.73307 34.8419C9.73405 34.8377 9.73405 34.8334 9.73307 34.8293L9.64707 34.4349C9.64393 34.4119 9.64393 34.3887 9.64707 34.3657L10.8763 23.6677C10.8805 23.615 10.9045 23.5659 10.9434 23.5301C10.9822 23.4943 11.0332 23.4746 11.086 23.4747H11.6965C11.7521 23.4747 11.8055 23.4968 11.8448 23.5362C11.8841 23.5755 11.9062 23.6289 11.9062 23.6845L11.9209 23.7894L13.1354 34.3741C13.1386 34.3971 13.1386 34.4203 13.1354 34.4433L11.9608 39.8342C11.9505 39.882 11.924 39.9246 11.8857 39.9548C11.8474 39.9851 11.7998 40.001 11.751 40C11.6419 39.9895 11.5245 39.9916 11.4049 39.9916ZM11.2056 39.572C11.3315 39.572 11.4594 39.572 11.5853 39.572L12.718 34.3762L11.514 23.888H11.2769L10.0729 34.3762L10.1547 34.7475C10.1547 34.7475 10.1547 34.7475 10.1547 34.7601L11.2056 39.572Z" fill="#003D31"/>
<path d="M4.13445 38.3407C4.07881 38.3407 4.02546 38.3186 3.98612 38.2793C3.94678 38.2399 3.92468 38.1866 3.92468 38.1309V30.2522C3.92468 30.1966 3.94678 30.1432 3.98612 30.1039C4.02546 30.0645 4.07881 30.0424 4.13445 30.0424C4.19008 30.0424 4.24343 30.0645 4.28277 30.1039C4.32211 30.1432 4.34421 30.1966 4.34421 30.2522V38.1267C4.34477 38.1546 4.33976 38.1824 4.32947 38.2083C4.31917 38.2342 4.30381 38.2579 4.28428 38.2778C4.26474 38.2977 4.24143 38.3135 4.2157 38.3243C4.18997 38.3351 4.16235 38.3407 4.13445 38.3407Z" fill="#003D31"/>
<path d="M18.6753 38.3407C18.6197 38.3407 18.5663 38.3186 18.527 38.2793C18.4876 38.2399 18.4655 38.1866 18.4655 38.1309V30.2522C18.4655 30.1966 18.4876 30.1432 18.527 30.1039C18.5663 30.0645 18.6197 30.0424 18.6753 30.0424C18.7309 30.0424 18.7843 30.0645 18.8236 30.1039C18.863 30.1432 18.8851 30.1966 18.8851 30.2522V38.1267C18.8856 38.1546 18.8806 38.1824 18.8703 38.2083C18.86 38.2342 18.8447 38.2579 18.8251 38.2778C18.8056 38.2977 18.7823 38.3135 18.7566 38.3243C18.7308 38.3351 18.7032 38.3407 18.6753 38.3407Z" fill="#003D31"/>
<path d="M11.9838 23.7999H10.7651C10.428 23.7999 10.1547 24.0732 10.1547 24.4103V25.5053C10.1547 25.8424 10.428 26.1157 10.7651 26.1157H11.9838C12.321 26.1157 12.5943 25.8424 12.5943 25.5053V24.4103C12.5943 24.0732 12.321 23.7999 11.9838 23.7999Z" fill="#5CE4CA"/>
<path d="M11.9859 26.3254H10.763C10.5462 26.3249 10.3384 26.2385 10.1851 26.0852C10.0318 25.9319 9.94547 25.7241 9.94492 25.5073V24.4082C9.94547 24.1914 10.0318 23.9836 10.1851 23.8303C10.3384 23.677 10.5462 23.5906 10.763 23.5901H11.9859C12.2027 23.5906 12.4105 23.677 12.5638 23.8303C12.7171 23.9836 12.8035 24.1914 12.804 24.4082V25.5073C12.8035 25.7241 12.7171 25.9319 12.5638 26.0852C12.4105 26.2385 12.2027 26.3249 11.9859 26.3254ZM10.763 24.018C10.6573 24.018 10.5559 24.06 10.4812 24.1347C10.4064 24.2095 10.3644 24.3109 10.3644 24.4166V25.5157C10.3644 25.5681 10.3748 25.6199 10.3948 25.6682C10.4148 25.7166 10.4442 25.7605 10.4812 25.7975C10.5182 25.8346 10.5621 25.8639 10.6105 25.8839C10.6588 25.904 10.7107 25.9143 10.763 25.9143H11.9859C12.0383 25.9143 12.0901 25.904 12.1384 25.8839C12.1868 25.8639 12.2307 25.8346 12.2677 25.7975C12.3048 25.7605 12.3341 25.7166 12.3541 25.6682C12.3742 25.6199 12.3845 25.5681 12.3845 25.5157V24.4166C12.3845 24.3109 12.3425 24.2095 12.2677 24.1347C12.193 24.06 12.0916 24.018 11.9859 24.018H10.763Z" fill="#003D31"/>
<path d="M7.5662 14.2829C7.97746 14.2829 8.31086 13.9495 8.31086 13.5382C8.31086 13.127 7.97746 12.7936 7.5662 12.7936C7.15493 12.7936 6.82153 13.127 6.82153 13.5382C6.82153 13.9495 7.15493 14.2829 7.5662 14.2829Z" fill="#003D31"/>
<path d="M15.2436 14.2829C15.6548 14.2829 15.9882 13.9495 15.9882 13.5382C15.9882 13.127 15.6548 12.7936 15.2436 12.7936C14.8323 12.7936 14.4989 13.127 14.4989 13.5382C14.4989 13.9495 14.8323 14.2829 15.2436 14.2829Z" fill="#003D31"/>
<path d="M11.4049 16.2505C11.1632 16.2487 10.922 16.2291 10.6833 16.1918C10.6562 16.187 10.6302 16.1769 10.607 16.162C10.5838 16.1472 10.5637 16.1279 10.5479 16.1053C10.5321 16.0827 10.521 16.0572 10.515 16.0303C10.5091 16.0034 10.5085 15.9756 10.5134 15.9484C10.5182 15.9213 10.5283 15.8954 10.5431 15.8722C10.558 15.8489 10.5772 15.8288 10.5998 15.8131C10.6224 15.7973 10.6479 15.7861 10.6748 15.7802C10.7018 15.7743 10.7296 15.7737 10.7567 15.7785C11.1298 15.8387 11.5101 15.8387 11.8831 15.7785C11.9482 15.5856 11.6734 14.7675 11.2538 13.9913C11.2403 13.9669 11.2317 13.94 11.2287 13.9122C11.2256 13.8844 11.2282 13.8563 11.2362 13.8295C11.2442 13.8027 11.2575 13.7778 11.2752 13.7562C11.293 13.7346 11.3149 13.7168 11.3396 13.7038C11.3644 13.6908 11.3915 13.6828 11.4194 13.6804C11.4472 13.6781 11.4753 13.6813 11.5019 13.6899C11.5285 13.6985 11.5531 13.7124 11.5742 13.7306C11.5954 13.7489 11.6127 13.7712 11.6251 13.7963C11.8349 14.1843 12.4642 15.487 12.2544 15.9652C12.2308 16.0175 12.1954 16.0636 12.151 16.1C12.1066 16.1364 12.0544 16.162 11.9985 16.175C11.8044 16.224 11.6051 16.2494 11.4049 16.2505Z" fill="#003D31"/>
<path d="M14.2052 18.453H8.60454C8.54891 18.453 8.49555 18.4309 8.45621 18.3915C8.41688 18.3522 8.39478 18.2988 8.39478 18.2432C8.39478 18.1876 8.41688 18.1342 8.45621 18.0949C8.49555 18.0555 8.54891 18.0334 8.60454 18.0334H14.2052C14.2609 18.0334 14.3142 18.0555 14.3536 18.0949C14.3929 18.1342 14.415 18.1876 14.415 18.2432C14.415 18.2988 14.3929 18.3522 14.3536 18.3915C14.3142 18.4309 14.2609 18.453 14.2052 18.453Z" fill="#003D31"/>
<path d="M8.83528 11.4993H5.38046C5.292 11.4993 5.20717 11.4641 5.14462 11.4016C5.08207 11.339 5.04694 11.2542 5.04694 11.1657C5.04694 11.0773 5.08207 10.9924 5.14462 10.9299C5.20717 10.8674 5.292 10.8322 5.38046 10.8322H8.83528C8.92374 10.8322 9.00857 10.8674 9.07112 10.9299C9.13366 10.9924 9.1688 11.0773 9.1688 11.1657C9.1688 11.2542 9.13366 11.339 9.07112 11.4016C9.00857 11.4641 8.92374 11.4993 8.83528 11.4993Z" fill="#003D31"/>
<path d="M17.4293 11.4993H13.9745C13.8861 11.4993 13.8012 11.4641 13.7387 11.4016C13.6761 11.339 13.641 11.2542 13.641 11.1657C13.641 11.0773 13.6761 10.9924 13.7387 10.9299C13.8012 10.8674 13.8861 10.8322 13.9745 10.8322H17.4293C17.5178 10.8322 17.6026 10.8674 17.6652 10.9299C17.7277 10.9924 17.7629 11.0773 17.7629 11.1657C17.7629 11.2542 17.7277 11.339 17.6652 11.4016C17.6026 11.4641 17.5178 11.4993 17.4293 11.4993Z" fill="#003D31"/>
<path d="M8.24161 16.0658H6.66418C6.1236 16.0653 5.60532 15.8503 5.22307 15.468C4.84082 15.0858 4.62583 14.5675 4.62527 14.0269V13.0347C4.62583 12.7957 4.72104 12.5666 4.89007 12.3975C5.05911 12.2285 5.28821 12.1333 5.52726 12.1328H9.38063C9.61949 12.1333 9.84838 12.2286 10.0171 12.3977C10.1858 12.5668 10.2805 12.7959 10.2805 13.0347V14.0269C10.28 14.5675 10.065 15.0858 9.68273 15.468C9.30048 15.8503 8.78219 16.0653 8.24161 16.0658ZM5.53146 12.5523C5.4035 12.5523 5.28079 12.6031 5.19031 12.6936C5.09983 12.7841 5.049 12.9068 5.049 13.0347V14.0269C5.049 14.4564 5.21961 14.8683 5.52331 15.172C5.827 15.4757 6.23889 15.6463 6.66838 15.6463H8.24581C8.67529 15.6463 9.08719 15.4757 9.39088 15.172C9.69458 14.8683 9.86519 14.4564 9.86519 14.0269V13.0347C9.86519 12.9071 9.81465 12.7847 9.72462 12.6943C9.6346 12.6039 9.51242 12.5528 9.38483 12.5523H5.53146Z" fill="#003D31"/>
<path d="M15.726 16.0658H14.1486C13.608 16.0653 13.0897 15.8503 12.7075 15.468C12.3252 15.0858 12.1102 14.5675 12.1097 14.0269V13.0347C12.1097 12.7959 12.2044 12.5668 12.3731 12.3977C12.5418 12.2286 12.7707 12.1333 13.0096 12.1328H16.8587C17.0978 12.1333 17.3269 12.2285 17.4959 12.3975C17.665 12.5666 17.7602 12.7957 17.7607 13.0347V14.0269C17.7602 14.5668 17.5458 15.0844 17.1644 15.4666C16.7831 15.8487 16.2659 16.0642 15.726 16.0658ZM13.0096 12.5523C12.882 12.5528 12.7598 12.6039 12.6698 12.6943C12.5798 12.7847 12.5292 12.9071 12.5292 13.0347V14.0269C12.5292 14.4564 12.6998 14.8683 13.0035 15.172C13.3072 15.4757 13.7191 15.6463 14.1486 15.6463H15.726C16.1555 15.6463 16.5674 15.4757 16.8711 15.172C17.1748 14.8683 17.3454 14.4564 17.3454 14.0269V13.0347C17.3454 12.9068 17.2946 12.7841 17.2041 12.6936C17.1136 12.6031 16.9909 12.5523 16.8629 12.5523H13.0096Z" fill="#003D31"/>
<path d="M12.1768 13.748C12.1268 13.748 12.0785 13.7301 12.0405 13.6976C11.1888 12.9655 10.3414 13.6682 10.3036 13.6976C10.2615 13.7331 10.207 13.7506 10.1521 13.7463C10.0971 13.742 10.0461 13.7162 10.01 13.6745C9.99205 13.6536 9.97844 13.6293 9.96991 13.6032C9.96137 13.577 9.95809 13.5493 9.96023 13.5219C9.96237 13.4944 9.9699 13.4676 9.9824 13.4431C9.99489 13.4185 10.0121 13.3967 10.033 13.3788C10.349 13.1033 10.7539 12.9515 11.1731 12.9515C11.5923 12.9515 11.9972 13.1033 12.3132 13.3788C12.3458 13.4066 12.369 13.4438 12.3798 13.4853C12.3906 13.5268 12.3885 13.5706 12.3736 13.6109C12.3588 13.6511 12.3319 13.6858 12.2967 13.7103C12.2616 13.7348 12.2197 13.748 12.1768 13.748Z" fill="#003D31"/>
<path d="M4.83507 13.2445C4.80382 13.2444 4.773 13.2372 4.74487 13.2236L2.38502 12.1055C2.33468 12.0816 2.29589 12.0387 2.27721 11.9861C2.25852 11.9336 2.26146 11.8758 2.28538 11.8255C2.30931 11.7751 2.35225 11.7364 2.40477 11.7177C2.45729 11.699 2.51507 11.7019 2.56542 11.7258L4.92527 12.8418C4.96791 12.8624 5.0023 12.8969 5.02285 12.9396C5.0434 12.9823 5.04889 13.0307 5.03843 13.0769C5.02797 13.1231 5.00218 13.1644 4.96526 13.1941C4.92833 13.2238 4.88244 13.2401 4.83507 13.2403V13.2445Z" fill="#003D31"/>
<path d="M17.6538 13.2446C17.6144 13.2446 17.5759 13.2337 17.5425 13.2129C17.5091 13.1921 17.4823 13.1624 17.465 13.1271C17.4402 13.0773 17.4363 13.0197 17.454 12.967C17.4717 12.9143 17.5096 12.8708 17.5594 12.846L19.4472 11.9147C19.4973 11.8902 19.5551 11.8866 19.6078 11.9047C19.6605 11.9228 19.7039 11.9611 19.7283 12.0112C19.7528 12.0612 19.7564 12.119 19.7383 12.1717C19.7202 12.2244 19.6819 12.2678 19.6318 12.2922L17.744 13.2236C17.7158 13.2372 17.685 13.2444 17.6538 13.2446Z" fill="#003D31"/>
<path d="M17.6496 33.8266H14.2787V35.8655H17.6496V33.8266Z" fill="#FFFAA4"/>
<path d="M17.6517 36.0752H14.2786C14.223 36.0752 14.1697 36.0531 14.1303 36.0138C14.091 35.9744 14.0689 35.9211 14.0689 35.8655V33.8182C14.0689 33.7625 14.091 33.7092 14.1303 33.6698C14.1697 33.6305 14.223 33.6084 14.2786 33.6084H17.6517C17.7073 33.6084 17.7606 33.6305 17.8 33.6698C17.8393 33.7092 17.8614 33.7625 17.8614 33.8182V35.8571C17.8625 35.8853 17.858 35.9135 17.8479 35.9399C17.8379 35.9663 17.8226 35.9905 17.803 36.0109C17.7834 36.0312 17.7599 36.0474 17.7339 36.0585C17.7079 36.0696 17.6799 36.0752 17.6517 36.0752ZM14.4884 35.6557H17.4419V34.0279H14.4884V35.6557Z" fill="#003D31"/>
<path d="M15.9652 34.4643C15.9095 34.4643 15.8562 34.4422 15.8168 34.4029C15.7775 34.3636 15.7554 34.3102 15.7554 34.2546V33.3987C15.7554 33.3431 15.7775 33.2897 15.8168 33.2504C15.8562 33.2111 15.9095 33.189 15.9652 33.189C16.0208 33.189 16.0742 33.2111 16.1135 33.2504C16.1528 33.2897 16.1749 33.3431 16.1749 33.3987V34.2525C16.1752 34.2802 16.17 34.3077 16.1596 34.3334C16.1491 34.3591 16.1337 34.3825 16.1142 34.4022C16.0947 34.4219 16.0715 34.4375 16.0459 34.4482C16.0203 34.4588 15.9929 34.4643 15.9652 34.4643Z" fill="#003D31"/>
</svg>
