<svg width="23" height="40" viewBox="0 0 23 40" fill="none" xmlns="http://www.w3.org/2000/svg">
<path d="M10.4018 0.286947C12.637 0.0479924 15.1302 0.356729 17.0164 1.47749C19.238 2.8283 20.8408 4.99682 21.4804 7.5169C21.8608 9.09174 21.9885 10.717 21.8589 12.3319C21.8315 12.7549 21.6707 16.2673 21.1104 16.2609H20.2814L9.77378 16.1383L4.18267 16.0748C3.80204 16.0748 3.29664 16.1954 2.93715 16.0897C2.42964 15.9395 2.01094 15.2015 1.75084 14.7786C1.06569 13.6578 0.708319 12.3573 0.482053 11.0695C0.309203 10.0341 0.213078 8.9873 0.194462 7.93771C0.179659 7.09186 0.230412 6.18256 0.708321 5.47627C1.18623 4.76998 2.22452 4.37877 2.92023 4.87149C3.01116 4.09964 3.69842 3.45891 4.2588 2.95562C4.74635 2.52225 5.27304 2.13502 5.83209 1.79891C6.90664 1.14882 8.08686 0.692194 9.31913 0.449774C9.66594 0.382106 10.0297 0.327125 10.4018 0.286947Z" fill="#725858"/>
<path d="M21.1167 16.4725L4.18901 16.2779C4.05116 16.2794 3.91349 16.2886 3.77666 16.3054C3.48117 16.3538 3.17926 16.3466 2.8864 16.2843C2.33236 16.1193 1.90943 15.4236 1.6303 14.9647L1.57955 14.8802C0.966303 13.8778 0.558177 12.6767 0.293847 11.0949C0.118548 10.0498 0.0210058 8.99312 0.00202589 7.93356C-0.0127766 7.03695 0.0422053 6.1044 0.551834 5.34947C0.870859 4.88927 1.35605 4.57086 1.9052 4.46132C2.20201 4.40019 2.51027 4.42815 2.79124 4.54168C3.0027 3.80155 3.67727 3.20311 4.13826 2.79075C4.62871 2.35131 5.15895 1.95841 5.72213 1.61713C6.81665 0.952813 8.02012 0.487464 9.27684 0.242613C9.63844 0.17283 10.0106 0.117849 10.3849 0.0776711C12.9119 -0.193003 15.3712 0.251072 17.1306 1.2957C19.4019 2.67324 21.0403 4.88886 21.6919 7.46411C22.0815 9.05974 22.2122 10.7076 22.0789 12.3447V12.4737C21.8526 16.1489 21.4656 16.4725 21.1167 16.4725ZM4.16575 15.855H4.1869L21.0913 16.0495C21.1717 15.9734 21.4677 15.4892 21.6433 12.4547V12.3236C21.7729 10.7292 21.6465 9.1243 21.269 7.56984C20.6444 5.10289 19.0753 2.98019 16.9001 1.65942C15.2084 0.661312 12.8548 0.236269 10.4166 0.49637C10.0529 0.536548 9.69131 0.589414 9.34239 0.659197C8.13429 0.893686 6.97731 1.34044 5.92513 1.97873C5.38691 2.30938 4.88072 2.68955 4.41317 3.11429C3.9416 3.53722 3.22685 4.17161 3.14438 4.89694C3.13979 4.93319 3.12589 4.96763 3.10402 4.99691C3.08216 5.02619 3.05308 5.0493 3.01962 5.06399C2.98564 5.07944 2.94818 5.08563 2.91104 5.08191C2.8739 5.0782 2.8384 5.06472 2.80815 5.04285C2.68507 4.9609 2.54672 4.90461 2.40139 4.87736C2.25605 4.85011 2.10671 4.85245 1.9623 4.88425C1.5243 4.97235 1.13764 5.22709 0.883834 5.59477C0.439759 6.25242 0.39112 7.10673 0.405923 7.93356C0.424784 8.97252 0.520202 10.0087 0.691401 11.0336C0.947272 12.5604 1.33848 13.715 1.92212 14.6687L1.97287 14.7533C2.20337 15.1339 2.59035 15.7704 2.9879 15.8867C3.22858 15.9285 3.47466 15.9285 3.71534 15.8867C3.87605 15.8698 4.02619 15.855 4.16575 15.855Z" fill="#003D31"/>
<path d="M22.21 32.1569V36.0077C21.1832 36.8403 20.0626 37.55 18.871 38.1223C18.472 38.3155 18.0646 38.4917 17.6487 38.651C16.9002 38.9427 16.1312 39.1788 15.348 39.3573C15.1196 39.4123 14.8912 39.4588 14.6586 39.499C14.1807 39.5906 13.695 39.6611 13.2016 39.7104C12.7787 39.7548 12.3346 39.7781 11.8927 39.7866C11.7742 39.7866 11.6579 39.7866 11.5395 39.7866C11.4211 39.7866 11.29 39.7866 11.1673 39.7866C10.7317 39.7781 10.3017 39.7527 9.87741 39.7104C9.3854 39.6639 8.89974 39.5934 8.42042 39.499C8.18781 39.4588 7.95943 39.4123 7.73105 39.3573C6.94858 39.1794 6.18029 38.944 5.43243 38.6531C5.01796 38.4924 4.61054 38.3162 4.21017 38.1245C3.01855 37.5521 1.89793 36.8424 0.871155 36.0098V32.1569C0.871155 27.4053 4.10232 23.5504 8.09053 23.5504H14.9885C18.9788 23.5504 22.21 27.4053 22.21 32.1569Z" fill="#5CE4CA"/>
<path d="M11.5416 40C11.4147 40 11.2879 40 11.1631 40C10.7402 40 10.294 39.9662 9.85837 39.9218C9.36988 39.8752 8.87294 39.8054 8.37812 39.7103C8.13071 39.6659 7.90233 39.6194 7.68029 39.5665C6.88852 39.3853 6.11107 39.1464 5.35419 38.8517C4.93126 38.6847 4.50833 38.5049 4.11712 38.3167C2.90997 37.7356 1.77453 37.016 0.733697 36.1725C0.709439 36.1528 0.689842 36.128 0.676314 36.0999C0.662785 36.0717 0.655663 36.0409 0.655457 36.0097V32.1568C0.655457 27.2931 3.98813 23.3387 8.0863 23.3387H14.9843C19.0824 23.3387 22.4151 27.2952 22.4151 32.1568V36.0076C22.4149 36.0388 22.4078 36.0696 22.3942 36.0977C22.3807 36.1259 22.3611 36.1507 22.3369 36.1704C21.296 37.0139 20.1606 37.7335 18.9534 38.3146C18.5665 38.5028 18.1499 38.6826 17.7164 38.8496C16.9595 39.1443 16.182 39.3832 15.3903 39.5644C15.1682 39.6172 14.9398 39.6638 14.6903 39.7082C14.2018 39.7991 13.7049 39.8689 13.2101 39.9196C12.7871 39.964 12.3473 39.9894 11.8863 39.9979C11.7806 39.9979 11.6622 40 11.5416 40ZM1.08473 35.9061C2.07787 36.702 3.15835 37.3824 4.30532 37.934C4.68384 38.1159 5.08985 38.2914 5.51067 38.4563C6.24896 38.7434 7.00734 38.9759 7.77968 39.152C7.99114 39.2028 8.21741 39.2493 8.45848 39.2916C8.9385 39.3804 9.42275 39.4502 9.90066 39.5031C10.3236 39.5475 10.7465 39.5728 11.1694 39.5792C11.4084 39.5792 11.6452 39.5792 11.8842 39.5792C12.3367 39.5792 12.7702 39.5453 13.1762 39.5031C13.6563 39.4586 14.1405 39.3889 14.6184 39.2916C14.8616 39.2493 15.0836 39.2028 15.2972 39.152C16.0697 38.9765 16.8281 38.744 17.5662 38.4563C17.9892 38.2914 18.3952 38.1159 18.7737 37.934C19.9207 37.3824 21.0011 36.702 21.9943 35.9061V32.1568C21.9943 27.5278 18.8498 23.7617 14.9864 23.7617H8.09264C4.2292 23.7617 1.08473 27.5278 1.08473 32.1568V35.9061Z" fill="#003D31"/>
<path d="M10.0001 23.7573V22.072H12.9267V23.7573" fill="#FFC9B0"/>
<path d="M12.9267 23.9688C12.8706 23.9688 12.8168 23.9465 12.7772 23.9068C12.7375 23.8672 12.7152 23.8134 12.7152 23.7573V22.2771H10.2115V23.7573C10.2115 23.8134 10.1892 23.8672 10.1496 23.9068C10.1099 23.9465 10.0561 23.9688 10 23.9688C9.94395 23.9688 9.89017 23.9465 9.85051 23.9068C9.81085 23.8672 9.78857 23.8134 9.78857 23.7573V22.0656C9.78857 22.0095 9.81085 21.9557 9.85051 21.9161C9.89017 21.8764 9.94395 21.8541 10 21.8541H12.9267C12.9828 21.8541 13.0366 21.8764 13.0762 21.9161C13.1159 21.9557 13.1382 22.0095 13.1382 22.0656V23.7573C13.1382 23.8134 13.1159 23.8672 13.0762 23.9068C13.0366 23.9465 12.9828 23.9688 12.9267 23.9688Z" fill="#003D31"/>
<path d="M3.09999 16.9208C4.67079 16.9208 5.94418 15.8235 5.94418 14.4699C5.94418 13.1163 4.67079 12.019 3.09999 12.019C1.52919 12.019 0.255798 13.1163 0.255798 14.4699C0.255798 15.8235 1.52919 16.9208 3.09999 16.9208Z" fill="#FFC9B0"/>
<path d="M3.09997 17.1322C1.40825 17.1322 0.0443115 15.9374 0.0443115 14.4698C0.0443115 13.0023 1.4146 11.8096 3.09997 11.8096C4.78533 11.8096 6.15351 13.0023 6.15351 14.4698C6.15351 15.9374 4.77476 17.1322 3.09997 17.1322ZM3.09997 12.2326C1.64721 12.2326 0.46724 13.237 0.46724 14.4698C0.46724 15.7027 1.64721 16.7093 3.09997 16.7093C4.55272 16.7093 5.73058 15.7048 5.73058 14.4698C5.73058 13.2349 4.55061 12.2326 3.09997 12.2326Z" fill="#003D31"/>
<path d="M19.6766 16.9208C21.2475 16.9208 22.5208 15.8235 22.5208 14.4699C22.5208 13.1163 21.2475 12.019 19.6766 12.019C18.1058 12.019 16.8325 13.1163 16.8325 14.4699C16.8325 15.8235 18.1058 16.9208 19.6766 16.9208Z" fill="#FFC9B0"/>
<path d="M19.6766 17.1322C17.9849 17.1322 16.621 15.9374 16.621 14.4698C16.621 13.0023 17.9913 11.8096 19.6766 11.8096C21.362 11.8096 22.7302 13.0023 22.7302 14.4698C22.7302 15.9374 21.3599 17.1322 19.6766 17.1322ZM19.6766 12.2326C18.2239 12.2326 17.0439 13.237 17.0439 14.4698C17.0439 15.7027 18.2239 16.7093 19.6766 16.7093C21.1294 16.7093 22.3072 15.7048 22.3072 14.4698C22.3072 13.2349 21.1273 12.2326 19.6766 12.2326Z" fill="#003D31"/>
<path d="M11.4634 22.4569C9.18864 22.4569 7.00705 21.5533 5.39855 19.9448C3.79006 18.3363 2.88641 16.1547 2.88641 13.8799V10.7629C2.88641 8.60179 3.63499 7.10039 5.46839 7.01792C7.30178 6.93545 11.6685 9.60836 14.6607 9.66968C15.8957 9.69294 19.776 8.13445 19.8775 10.3379L20.0383 13.8905C20.036 16.1632 19.1316 18.3421 17.5237 19.9484C15.9159 21.5547 13.7361 22.4569 11.4634 22.4569Z" fill="#FFC9B0"/>
<path d="M11.4634 22.6683C9.13339 22.6655 6.89964 21.7387 5.25209 20.0911C3.60455 18.4436 2.67772 16.2098 2.67493 13.8798V10.7629C2.67493 8.25701 3.6392 6.88884 5.45991 6.80637C6.32902 6.7683 7.68028 7.30119 9.24934 7.91655C11.0426 8.62073 13.0747 9.42006 14.6649 9.44755C15.1144 9.41631 15.5602 9.34555 15.9972 9.23609C17.2533 8.98233 18.8181 8.66725 19.6068 9.28261C19.7585 9.40691 19.8804 9.56349 19.9638 9.74092C20.0472 9.91835 20.09 10.1122 20.089 10.3082L20.2497 13.8629C20.2514 16.1955 19.3268 18.4332 17.6793 20.0844C16.0317 21.7355 13.7959 22.6649 11.4634 22.6683ZM5.54238 7.23141H5.47048C3.89084 7.30119 3.08939 8.50019 3.08939 10.765V13.882C3.07175 14.9916 3.27507 16.0936 3.6875 17.1239C4.09993 18.1542 4.71324 19.0921 5.4917 19.8831C6.27016 20.674 7.19822 21.3021 8.22181 21.7309C9.24541 22.1597 10.3441 22.3805 11.4539 22.3805C12.5636 22.3805 13.6623 22.1597 14.6859 21.7309C15.7095 21.3021 16.6375 20.674 17.416 19.8831C18.1945 19.0921 18.8078 18.1542 19.2202 17.1239C19.6326 16.0936 19.836 14.9916 19.8183 13.882L19.6576 10.3378C19.6611 10.2028 19.6341 10.0687 19.5784 9.94568C19.5227 9.82263 19.4399 9.71378 19.3362 9.6273C18.7018 9.13247 17.1835 9.43909 16.0733 9.66113C15.6064 9.775 15.13 9.84579 14.6501 9.87259C12.9838 9.8451 10.9114 9.02674 9.08651 8.31199C7.67816 7.75372 6.33748 7.22718 5.55084 7.22718L5.54238 7.23141Z" fill="#003D31"/>
<path d="M4.21226 38.3357C4.15617 38.3357 4.10239 38.3134 4.06273 38.2737C4.02307 38.2341 4.00079 38.1803 4.00079 38.1242V30.1816C4.00079 30.1255 4.02307 30.0717 4.06273 30.0321C4.10239 29.9924 4.15617 29.9702 4.21226 29.9702C4.26834 29.9702 4.32213 29.9924 4.36179 30.0321C4.40144 30.0717 4.42372 30.1255 4.42372 30.1816V38.12C4.42428 38.1481 4.41923 38.1761 4.40886 38.2022C4.39848 38.2283 4.38299 38.2522 4.3633 38.2722C4.34361 38.2923 4.32011 38.3083 4.29417 38.3192C4.26823 38.3301 4.24039 38.3357 4.21226 38.3357Z" fill="#003D31"/>
<path d="M18.8709 38.3357C18.8149 38.3357 18.7611 38.3134 18.7214 38.2737C18.6818 38.2341 18.6595 38.1803 18.6595 38.1242V30.1816C18.6595 30.1255 18.6818 30.0717 18.7214 30.0321C18.7611 29.9924 18.8149 29.9702 18.8709 29.9702C18.927 29.9702 18.9808 29.9924 19.0205 30.0321C19.0601 30.0717 19.0824 30.1255 19.0824 30.1816V38.12C19.083 38.1481 19.0779 38.1761 19.0675 38.2022C19.0572 38.2283 19.0417 38.2522 19.022 38.2722C19.0023 38.2923 18.9788 38.3083 18.9529 38.3192C18.9269 38.3301 18.8991 38.3357 18.8709 38.3357Z" fill="#003D31"/>
<path d="M14.3647 23.5504L12.8992 32.25L11.7171 39.2706L10.3299 31.9983L8.71857 23.5504H14.3647Z" fill="white"/>
<path d="M11.7171 39.486C11.6673 39.4869 11.6189 39.4703 11.5802 39.4389C11.5415 39.4076 11.5151 39.3636 11.5057 39.3147L8.50709 23.5945C8.5011 23.5636 8.5021 23.5317 8.51001 23.5012C8.51792 23.4707 8.53254 23.4424 8.55281 23.4183C8.57308 23.3941 8.59848 23.3748 8.62716 23.3618C8.65583 23.3488 8.68706 23.3423 8.71856 23.3429H14.3646C14.3952 23.3429 14.4254 23.3495 14.4531 23.3623C14.4809 23.375 14.5055 23.3937 14.5254 23.4169C14.5457 23.4404 14.5607 23.4682 14.5691 23.4981C14.5775 23.5281 14.5792 23.5596 14.574 23.5903L11.9265 39.3105C11.9179 39.3602 11.8919 39.4051 11.8531 39.4373C11.8144 39.4695 11.7654 39.4868 11.715 39.486H11.7171ZM8.96809 23.7658L11.6981 38.0777L14.1088 23.7658H8.96809Z" fill="#003D31"/>
<path d="M12.8992 32.2497L11.7172 39.2703L10.33 31.9981L11.2223 24.2289L11.2371 24.1041V24.0999H11.8462V24.1041L11.861 24.2289L12.8992 32.2497Z" fill="#FFFAA4"/>
<path d="M11.7171 39.4861C11.6674 39.487 11.6189 39.4703 11.5802 39.4389C11.5415 39.4076 11.5151 39.3636 11.5057 39.3148L10.1185 32.0425C10.1153 32.0215 10.1153 32.0001 10.1185 31.9791L11.0257 24.0872C11.0299 24.0341 11.0541 23.9846 11.0933 23.9485C11.1325 23.9125 11.1839 23.8925 11.2371 23.8927H11.8461C11.9022 23.8927 11.956 23.915 11.9957 23.9546C12.0353 23.9943 12.0576 24.0481 12.0576 24.1042L12.0703 24.2078L13.1086 32.2265C13.1107 32.2476 13.1107 32.2688 13.1086 32.2899L11.9265 39.3105C11.9179 39.3602 11.8919 39.4052 11.8532 39.4373C11.8144 39.4695 11.7654 39.4868 11.715 39.4861H11.7171ZM10.5435 31.9939L11.7045 38.0777L12.6857 32.2498L11.6579 24.3156H11.4253L10.5435 31.9939Z" fill="#003D31"/>
<path d="M12.1338 23.677H10.9052C10.5653 23.677 10.2898 23.9525 10.2898 24.2924V25.3962C10.2898 25.7361 10.5653 26.0116 10.9052 26.0116H12.1338C12.4736 26.0116 12.7491 25.7361 12.7491 25.3962V24.2924C12.7491 23.9525 12.4736 23.677 12.1338 23.677Z" fill="#FFFAA4"/>
<path d="M12.1359 26.2229H10.9073C10.6883 26.2229 10.4784 26.1361 10.3234 25.9815C10.1684 25.8269 10.081 25.6172 10.0804 25.3982V24.2902C10.081 24.0712 10.1684 23.8615 10.3234 23.7069C10.4784 23.5523 10.6883 23.4655 10.9073 23.4655H12.138C12.3569 23.4655 12.5669 23.5523 12.7219 23.7069C12.8769 23.8615 12.9643 24.0712 12.9648 24.2902V25.3982C12.9645 25.5068 12.9429 25.6143 12.9011 25.7145C12.8593 25.8147 12.7981 25.9057 12.7211 25.9823C12.6442 26.0588 12.5529 26.1195 12.4524 26.1608C12.352 26.2021 12.2445 26.2232 12.1359 26.2229ZM10.9052 23.8968C10.7984 23.8968 10.696 23.9391 10.6203 24.0144C10.5446 24.0897 10.5018 24.1919 10.5013 24.2986V25.4067C10.5018 25.5134 10.5446 25.6156 10.6203 25.6909C10.696 25.7662 10.7984 25.8085 10.9052 25.8085H12.1359C12.2426 25.8085 12.345 25.7662 12.4207 25.6909C12.4964 25.6156 12.5392 25.5134 12.5398 25.4067V24.2986C12.5392 24.1919 12.4964 24.0897 12.4207 24.0144C12.345 23.9391 12.2426 23.8968 12.1359 23.8968H10.9052Z" fill="#003D31"/>
<path d="M7.67184 14.7173C8.08644 14.7173 8.42254 14.3812 8.42254 13.9666C8.42254 13.552 8.08644 13.2159 7.67184 13.2159C7.25724 13.2159 6.92114 13.552 6.92114 13.9666C6.92114 14.3812 7.25724 14.7173 7.67184 14.7173Z" fill="#003D31"/>
<path d="M15.4114 14.7173C15.826 14.7173 16.1621 14.3812 16.1621 13.9666C16.1621 13.552 15.826 13.2159 15.4114 13.2159C14.9968 13.2159 14.6607 13.552 14.6607 13.9666C14.6607 14.3812 14.9968 14.7173 15.4114 14.7173Z" fill="#003D31"/>
<path d="M11.5416 16.7008C11.298 16.699 11.0548 16.6792 10.8141 16.6416C10.7868 16.6367 10.7607 16.6265 10.7372 16.6116C10.7138 16.5966 10.6936 16.5772 10.6777 16.5544C10.6618 16.5316 10.6505 16.5059 10.6445 16.4788C10.6386 16.4517 10.638 16.4236 10.6429 16.3963C10.6477 16.3689 10.6579 16.3428 10.6729 16.3194C10.6878 16.2959 10.7072 16.2757 10.73 16.2598C10.7528 16.2439 10.7785 16.2326 10.8056 16.2267C10.8328 16.2207 10.8608 16.2201 10.8882 16.225C11.2643 16.2857 11.6476 16.2857 12.0237 16.225C12.0893 16.0304 11.8123 15.2057 11.3893 14.4233C11.3756 14.3987 11.367 14.3716 11.364 14.3435C11.3609 14.3155 11.3635 14.2872 11.3715 14.2601C11.3796 14.2331 11.393 14.208 11.4109 14.1862C11.4288 14.1645 11.4509 14.1465 11.4758 14.1334C11.5008 14.1203 11.5281 14.1123 11.5562 14.1099C11.5843 14.1075 11.6125 14.1107 11.6394 14.1194C11.6662 14.1281 11.691 14.1421 11.7123 14.1605C11.7337 14.1789 11.7511 14.2014 11.7636 14.2267C11.9751 14.6179 12.6095 15.9311 12.398 16.4132C12.3742 16.4659 12.3385 16.5124 12.2937 16.5491C12.249 16.5857 12.1964 16.6116 12.14 16.6247C11.9443 16.6741 11.7434 16.6996 11.5416 16.7008Z" fill="#003D31"/>
<path d="M11.5416 19.213C9.48616 19.213 8.67625 18.919 8.64241 18.9084C8.58969 18.8885 8.54704 18.8485 8.52385 18.7971C8.50065 18.7458 8.4988 18.6873 8.51871 18.6346C8.53862 18.5819 8.57865 18.5392 8.63001 18.516C8.68137 18.4928 8.73984 18.491 8.79255 18.5109C8.79255 18.5109 9.5792 18.79 11.5416 18.79C13.504 18.79 14.2906 18.513 14.2906 18.5109C14.3433 18.4913 14.4017 18.4934 14.4529 18.5168C14.504 18.5402 14.5438 18.5829 14.5634 18.6357C14.583 18.6884 14.5809 18.7467 14.5575 18.7979C14.5341 18.8491 14.4914 18.8888 14.4386 18.9084C14.4069 18.919 13.597 19.213 11.5416 19.213Z" fill="#003D31"/>
<path d="M8.95118 11.911H5.46837C5.37919 11.911 5.29367 11.8756 5.23062 11.8126C5.16756 11.7495 5.13214 11.664 5.13214 11.5748C5.13214 11.4856 5.16756 11.4001 5.23062 11.3371C5.29367 11.274 5.37919 11.2386 5.46837 11.2386H8.95118C9.04035 11.2386 9.12587 11.274 9.18893 11.3371C9.25198 11.4001 9.28741 11.4856 9.28741 11.5748C9.28741 11.664 9.25198 11.7495 9.18893 11.8126C9.12587 11.8756 9.04035 11.911 8.95118 11.911Z" fill="#003D31"/>
<path d="M17.6149 11.911H14.1321C14.0429 11.911 13.9574 11.8756 13.8943 11.8126C13.8313 11.7495 13.7958 11.664 13.7958 11.5748C13.7958 11.4856 13.8313 11.4001 13.8943 11.3371C13.9574 11.274 14.0429 11.2386 14.1321 11.2386H17.6149C17.704 11.2386 17.7896 11.274 17.8526 11.3371C17.9157 11.4001 17.9511 11.4856 17.9511 11.5748C17.9511 11.664 17.9157 11.7495 17.8526 11.8126C17.7896 11.8756 17.704 11.911 17.6149 11.911Z" fill="#003D31"/>
<path d="M5.22099 34.9671C5.1649 34.9671 5.11111 34.9449 5.07146 34.9052C5.0318 34.8655 5.00952 34.8118 5.00952 34.7557V30.9493C5.00952 30.8932 5.0318 30.8394 5.07146 30.7998C5.11111 30.7601 5.1649 30.7379 5.22099 30.7379C5.27707 30.7379 5.33086 30.7601 5.37051 30.7998C5.41017 30.8394 5.43245 30.8932 5.43245 30.9493V34.7557C5.43245 34.8118 5.41017 34.8655 5.37051 34.9052C5.33086 34.9449 5.27707 34.9671 5.22099 34.9671Z" fill="#003D31"/>
</svg>
