<svg width="26" height="40" viewBox="0 0 26 40" fill="none" xmlns="http://www.w3.org/2000/svg">
<path d="M8.52845 2.06671C8.52845 2.06671 6.31064 1.41645 4.20902 3.69745C2.24193 5.82354 2.34793 8.87711 2.24804 11.4129C2.17874 13.1782 1.9912 15.2859 1.2696 16.9167C0.984215 17.5649 0.403262 17.9563 0.25038 18.6799C0.175261 19.0671 0.183874 19.4659 0.275639 19.8495C0.367405 20.2331 0.540198 20.5926 0.782411 20.9039C1.53459 21.866 2.79231 22.3308 4.02148 22.4572L4.83685 20.6898C5.26346 21.2317 5.54417 21.8738 5.65223 22.555C5.77046 23.3031 10.6994 23.0524 11.3272 23.0544C14.0241 23.0666 16.9288 23.138 19.5625 22.5163C19.8098 22.4823 20.0398 22.3702 20.2189 22.1962C20.3182 22.0597 20.3845 21.902 20.4125 21.7355C20.5496 21.151 20.6181 20.5524 20.6164 19.9519C20.8754 20.2748 21.0429 20.6613 21.1015 21.071C21.13 21.2851 21.1443 21.5317 21.3176 21.6622C21.4909 21.7926 21.7579 21.7417 21.976 21.6764C23.2235 21.3054 25.0581 20.7286 25.1804 19.2303C25.2198 18.657 25.0324 18.0911 24.6586 17.6546C24.4914 17.4508 24.2896 17.2897 24.1347 17.0838C23.7882 16.6293 23.6903 16.0442 23.6027 15.4837C23.3373 13.896 23.1914 12.2906 23.1664 10.6811C23.1542 8.54689 22.6609 6.40042 21.4745 4.56583C18.8062 0.421694 11.6371 -1.46793 8.52845 2.06671Z" fill="#725858"/>
<path d="M9.0931 23.295C6.55321 23.295 5.534 23.0912 5.4545 22.5857C5.36997 22.0531 5.17335 21.5445 4.87762 21.0935L4.21106 22.5408C4.1935 22.5792 4.16446 22.6112 4.12795 22.6324C4.09144 22.6535 4.04925 22.6629 4.00721 22.659C3.15515 22.5755 1.58351 22.2513 0.62749 21.0283C0.366545 20.6935 0.180395 20.3067 0.0815865 19.8938C-0.0172218 19.481 -0.0263948 19.0518 0.0546877 18.6352C0.165106 18.2218 0.369506 17.8395 0.65195 17.5181C0.824983 17.3075 0.972121 17.0768 1.09021 16.8312C1.81997 15.1739 1.98712 13.058 2.05235 11.3967C2.06254 11.1582 2.06866 10.9136 2.07682 10.6669C2.1502 8.25954 2.23581 5.53212 4.06633 3.55076C5.96411 1.49602 7.93935 1.73044 8.46526 1.83848C9.68832 0.507384 11.5759 -0.136761 13.7958 0.024275C16.9329 0.250541 20.0925 2.02602 21.658 4.43952C22.773 6.15996 23.3682 8.31254 23.3825 10.671C23.4052 12.2731 23.5503 13.8712 23.8167 15.4511C23.8962 15.9587 23.9879 16.5356 24.31 16.9596C24.3951 17.0692 24.4877 17.1727 24.5872 17.2694C24.6688 17.351 24.7503 17.4345 24.8257 17.5242C25.2347 18.0012 25.4397 18.6199 25.3965 19.2467C25.2599 20.9202 23.248 21.5196 22.0473 21.8783C21.8659 21.9313 21.4888 22.0434 21.2075 21.8314C21.1169 21.7469 21.0447 21.6446 20.9953 21.531C20.9458 21.4174 20.9202 21.2949 20.9201 21.171V21.1057C20.8984 20.9561 20.8608 20.8092 20.808 20.6675C20.7757 21.0454 20.7143 21.4202 20.6245 21.7886C20.5906 21.9864 20.5095 22.1731 20.3881 22.3329C20.1831 22.543 19.9143 22.6792 19.6236 22.7202C17.1775 23.2991 14.5439 23.2828 11.9958 23.2685H11.3415H10.8686C10.202 23.2869 9.61494 23.295 9.0931 23.295ZM4.83889 20.4861C4.86951 20.4862 4.8997 20.4932 4.92723 20.5067C4.95475 20.5201 4.9789 20.5395 4.99789 20.5635C5.448 21.1319 5.74424 21.8065 5.85811 22.5225C5.92741 22.659 6.55933 22.975 10.8462 22.8608H11.3333H11.9877C14.5113 22.8751 17.1225 22.8894 19.5197 22.3247C19.7231 22.2974 19.9135 22.2093 20.066 22.072C20.1448 21.9594 20.1971 21.8305 20.2189 21.6949C20.3539 21.1258 20.4223 20.543 20.4227 19.9581C20.4235 19.9165 20.4369 19.8761 20.4613 19.8423C20.4857 19.8086 20.5198 19.7831 20.5591 19.7694C20.5984 19.7556 20.641 19.7542 20.6811 19.7654C20.7212 19.7765 20.757 19.7997 20.7835 19.8317C21.0684 20.1834 21.2517 20.6064 21.3135 21.0548V21.1241C21.3359 21.2892 21.3563 21.4462 21.444 21.5134C21.5316 21.5807 21.7416 21.5461 21.921 21.4931C23.0217 21.1649 24.8645 20.6165 24.9786 19.2202C25.0149 18.7005 24.8441 18.1876 24.5037 17.7933C24.4364 17.7118 24.361 17.6363 24.2855 17.5609C24.1743 17.4514 24.0702 17.335 23.9737 17.2123C23.5904 16.7068 23.4865 16.0484 23.4029 15.5204C23.1344 13.9228 22.9879 12.3071 22.9646 10.6873C22.9524 8.40835 22.3776 6.32915 21.3053 4.67598C19.8071 2.36236 16.7739 0.662305 13.7631 0.444192C11.6208 0.29131 9.81878 0.917109 8.68541 2.21355C8.66037 2.24153 8.62808 2.26205 8.59211 2.27284C8.55614 2.28363 8.51789 2.28428 8.48157 2.27471C8.38984 2.24821 6.34937 1.69579 4.36801 3.84022C2.63942 5.7115 2.55788 8.35739 2.48654 10.6934C2.48654 10.9421 2.47227 11.1867 2.46208 11.4273C2.39685 13.1232 2.22358 15.3003 1.46732 17.0105C1.33633 17.2851 1.17202 17.5426 0.978101 17.777C0.73409 18.0532 0.555076 18.3806 0.454222 18.7351C0.385377 19.0932 0.394152 19.4619 0.479954 19.8164C0.565756 20.1709 0.726588 20.5028 0.9516 20.7898C1.76697 21.8314 3.09603 22.1515 3.90529 22.2493L4.65747 20.6186C4.67218 20.5871 4.6947 20.5599 4.72288 20.5395C4.75107 20.5192 4.78399 20.5064 4.81851 20.5024L4.83889 20.4861Z" fill="#003D31"/>
<path d="M22.8892 32.4395V36.1515C21.8995 36.9541 20.8192 37.6382 19.6705 38.1899C19.286 38.3761 18.8932 38.546 18.4923 38.6995C17.7708 38.9807 17.0295 39.2083 16.2745 39.3804C16.0544 39.4333 15.8342 39.4782 15.61 39.5169C15.1493 39.6053 14.6811 39.6732 14.2055 39.7208C13.7978 39.7636 13.3697 39.786 12.9437 39.7942C12.8296 39.7942 12.7174 39.7942 12.6033 39.7942C12.4891 39.7942 12.3628 39.7942 12.2445 39.7942C11.8246 39.786 11.4101 39.7615 11.0011 39.7208C10.5268 39.6759 10.0587 39.608 9.59661 39.5169C9.37238 39.4782 9.15222 39.4333 8.93207 39.3804C8.1778 39.2088 7.43721 38.982 6.7163 38.7016C6.31677 38.5466 5.92403 38.3768 5.53808 38.1919C4.3894 37.6402 3.30917 36.9561 2.3194 36.1535V32.4395C2.3194 27.8591 5.43412 24.1431 9.27861 24.1431H15.928C19.7745 24.1431 22.8892 27.8591 22.8892 32.4395Z" fill="#FFFAA4"/>
<path d="M12.6053 40C12.483 40 12.3607 40 12.2404 40C11.8328 40 11.4026 39.9674 10.9827 39.9246C10.5118 39.8798 10.0328 39.8125 9.55582 39.7208C9.31732 39.6779 9.09718 39.6331 8.88314 39.5821C8.1199 39.4075 7.37047 39.1772 6.64086 38.8932C6.23318 38.7321 5.82549 38.5588 5.44838 38.3774C4.28473 37.8173 3.19021 37.1236 2.18689 36.3105C2.1635 36.2915 2.14461 36.2676 2.13157 36.2404C2.11853 36.2133 2.11166 36.1836 2.11147 36.1535V32.4395C2.11147 27.7511 5.32404 23.9392 9.27452 23.9392H15.9239C19.8744 23.9392 23.0869 27.7531 23.0869 32.4395V36.1515C23.0867 36.1816 23.0799 36.2113 23.0668 36.2384C23.0538 36.2655 23.0349 36.2895 23.0115 36.3084C22.0087 37.1223 20.9141 37.816 19.75 38.3754C19.377 38.5568 18.9754 38.7301 18.5575 38.8911C17.8279 39.1752 17.0785 39.4055 16.3153 39.5801C16.1012 39.6311 15.8811 39.6759 15.6405 39.7187C15.1697 39.8064 14.6906 39.8736 14.2136 39.9226C13.806 39.9654 13.382 39.9898 12.9376 39.998C12.8357 39.998 12.7215 40 12.6053 40ZM2.52527 36.0536C3.48261 36.8209 4.52416 37.4767 5.6298 38.0085C5.99468 38.1838 6.38606 38.353 6.79171 38.512C7.5034 38.7887 8.23444 39.0129 8.97895 39.1826C9.18279 39.2315 9.4009 39.2764 9.63328 39.3171C10.096 39.4028 10.5628 39.47 11.0235 39.521C11.4312 39.5638 11.8389 39.5883 12.2466 39.5944C12.4769 39.5944 12.7052 39.5944 12.9355 39.5944C13.3718 39.5944 13.7896 39.5618 14.181 39.521C14.6437 39.4782 15.1106 39.4109 15.5712 39.3171C15.8057 39.2764 16.0197 39.2315 16.2256 39.1826C16.9702 39.0135 17.7013 38.7893 18.4128 38.512C18.8205 38.353 19.2119 38.1838 19.5768 38.0085C20.6821 37.4762 21.7236 36.8204 22.6813 36.0536V32.4395C22.6813 27.9773 19.6501 24.3469 15.9259 24.3469H9.28063C5.55642 24.3469 2.52527 27.9773 2.52527 32.4395V36.0536Z" fill="#003D31"/>
<path d="M22.9708 32.4395V36.1515C21.981 36.9541 20.9008 37.6382 19.7521 38.1899C19.3661 38.3761 18.9734 38.546 18.5739 38.6995C17.8529 38.9799 17.1124 39.2068 16.3581 39.3783C16.1379 39.4313 15.9178 39.4762 15.6936 39.5149C15.2329 39.6032 14.7647 39.6712 14.2891 39.7187C13.8814 39.7615 13.4533 39.784 13.0273 39.7921C12.9131 39.7921 12.801 39.7921 12.6869 39.7921C12.5727 39.7921 12.4463 39.7921 12.3281 39.7921C11.9082 39.784 11.4937 39.7595 11.0847 39.7187C10.6104 39.6739 10.1422 39.6059 9.68017 39.5149C9.45595 39.4762 9.23376 39.4313 9.01565 39.3783C8.26138 39.2068 7.52078 38.9799 6.79987 38.6995C6.40034 38.5446 6.0076 38.3747 5.62166 38.1899C4.47297 37.6382 3.39274 36.9541 2.40297 36.1515V32.4395C2.40297 27.8591 5.51769 24.1431 9.36218 24.1431H16.0115C19.856 24.1431 22.9708 27.8591 22.9708 32.4395Z" fill="#FFFAA4"/>
<path d="M12.6869 40C12.5645 40 12.4422 40 12.322 40C11.9 40 11.476 39.9674 11.0643 39.9266C10.5913 39.8818 10.1123 39.8125 9.63736 39.7228C9.40294 39.682 9.17464 39.6351 8.96264 39.5842C8.19937 39.4105 7.44991 39.1809 6.72036 38.8972C6.31268 38.7382 5.90499 38.5629 5.52788 38.3815C4.36361 37.8233 3.26894 37.1302 2.26639 36.3166C2.24274 36.2974 2.22368 36.2731 2.21063 36.2456C2.19758 36.2181 2.19086 36.188 2.19096 36.1576V32.4395C2.19096 27.7511 5.40354 23.9392 9.35402 23.9392H16.0034C19.9539 23.9392 23.1664 27.7531 23.1664 32.4395V36.1515C23.1665 36.1819 23.1598 36.212 23.1468 36.2395C23.1337 36.267 23.1147 36.2913 23.091 36.3105C22.0885 37.1241 20.9938 37.8172 19.8295 38.3754C19.4524 38.5568 19.0508 38.7321 18.637 38.8911C17.9074 39.175 17.1579 39.4053 16.3948 39.5801C16.1767 39.6311 15.9545 39.6779 15.72 39.7187C15.2532 39.8064 14.7742 39.8757 14.2931 39.9226C13.8956 39.9633 13.4778 39.9878 13.0171 39.9959C12.9172 39.998 12.8092 40 12.6869 40ZM2.617 36.0536C3.57363 36.8208 4.6145 37.4767 5.71949 38.0085C6.08845 38.1858 6.47983 38.355 6.88343 38.512C7.59559 38.7874 8.32654 39.0115 9.07068 39.1826C9.27452 39.2315 9.49467 39.2764 9.72501 39.3151C10.1857 39.4048 10.6525 39.47 11.1132 39.519C11.5209 39.5597 11.9286 39.5842 12.3362 39.5923C12.5666 39.5923 12.7949 39.5923 13.0232 39.5923C13.4757 39.5923 13.8834 39.5597 14.2728 39.521C14.7355 39.4761 15.2023 39.4109 15.6589 39.3171C15.8892 39.2764 16.1033 39.2336 16.3153 39.1826C17.0601 39.0118 17.7918 38.7877 18.5045 38.512C18.9122 38.355 19.2995 38.1858 19.6685 38.0085C20.7735 37.4767 21.8143 36.8208 22.771 36.0536V32.4395C22.771 27.9773 19.7398 24.3469 16.0156 24.3469H9.36217C5.63795 24.3469 2.6068 27.9773 2.6068 32.4395L2.617 36.0536Z" fill="#003D31"/>
<path d="M6.14553 38.3958C6.09147 38.3958 6.03962 38.3743 6.00139 38.3361C5.96317 38.2979 5.94169 38.246 5.94169 38.1919V32.7452C5.84996 32.4334 5.16301 29.9934 5.72765 28.4645C5.73702 28.4394 5.75126 28.4163 5.76954 28.3966C5.78783 28.377 5.80981 28.3611 5.83423 28.3499C5.85864 28.3388 5.88502 28.3325 5.91185 28.3316C5.93869 28.3306 5.96545 28.3349 5.99061 28.3443C6.01578 28.3536 6.03885 28.3679 6.05851 28.3862C6.07817 28.4044 6.09404 28.4264 6.10521 28.4508C6.11637 28.4753 6.12262 28.5016 6.1236 28.5285C6.12457 28.5553 6.12025 28.5821 6.11088 28.6072C5.56662 30.0708 6.33307 32.6209 6.34122 32.6474C6.34335 32.6671 6.34335 32.6869 6.34122 32.7065V38.1817C6.34259 38.2087 6.3386 38.2356 6.32948 38.261C6.32036 38.2864 6.30629 38.3097 6.28809 38.3296C6.26988 38.3496 6.24791 38.3657 6.22344 38.377C6.19897 38.3884 6.17249 38.3947 6.14553 38.3958Z" fill="#003D31"/>
<path d="M19.0651 38.3957C19.0111 38.3957 18.9592 38.3742 18.921 38.336C18.8827 38.2977 18.8613 38.2459 18.8613 38.1918V32.7166C18.8591 32.6969 18.8591 32.6771 18.8613 32.6575C18.8613 32.631 19.6359 30.0789 19.0916 28.6173C19.0727 28.5665 19.0747 28.5102 19.0973 28.4609C19.1198 28.4116 19.1611 28.3733 19.2119 28.3543C19.2627 28.3354 19.319 28.3375 19.3683 28.36C19.4176 28.3826 19.4559 28.4238 19.4748 28.4746C20.0395 29.9932 19.3525 32.4332 19.2608 32.7553V38.202C19.2583 38.2529 19.2368 38.301 19.2006 38.3369C19.1644 38.3727 19.116 38.3937 19.0651 38.3957Z" fill="#003D31"/>
<path d="M15.4591 24.1431V39.5169C15.0327 39.6067 14.6021 39.6747 14.1688 39.7208C13.7856 39.7636 13.4003 39.786 13.0089 39.7942C12.9029 39.7942 12.8051 39.7942 12.695 39.7942H12.3648C11.9795 39.7942 11.6004 39.7615 11.2233 39.7208C10.79 39.6749 10.3593 39.6068 9.93294 39.5169V24.1431H15.4591Z" fill="white"/>
<path d="M12.695 40C12.5829 40 12.4688 40 12.3587 40C11.9714 40 11.58 39.9674 11.2008 39.9246C10.7608 39.8788 10.3233 39.8107 9.89013 39.7208C9.84377 39.7108 9.80233 39.685 9.77294 39.6478C9.74355 39.6106 9.72805 39.5643 9.7291 39.5169V24.1431C9.7291 24.089 9.75058 24.0371 9.7888 23.9989C9.82703 23.9607 9.87888 23.9392 9.93294 23.9392H15.4591C15.5132 23.9392 15.565 23.9607 15.6033 23.9989C15.6415 24.0371 15.663 24.089 15.663 24.1431V39.5169C15.6639 39.5646 15.6481 39.6111 15.6184 39.6484C15.5886 39.6856 15.5466 39.7112 15.4999 39.7208C15.0667 39.8107 14.6292 39.8788 14.1892 39.9246C13.8202 39.9674 13.435 39.9919 13.013 40C12.9097 40 12.8037 40 12.695 40ZM10.1368 39.3498C10.5037 39.4211 10.8747 39.4761 11.2437 39.5149C11.6126 39.5536 11.9918 39.5781 12.3709 39.5862C12.5748 39.5862 12.7908 39.5862 13.0008 39.5862C13.4085 39.5862 13.7876 39.5536 14.1443 39.5149C14.5011 39.4761 14.8884 39.4211 15.2553 39.3498V24.3469H10.1368V39.3498Z" fill="#003D31"/>
<path d="M9.93294 35.7519C9.89572 35.7521 9.85913 35.7422 9.82715 35.7232C9.79517 35.7041 9.76901 35.6767 9.75152 35.6438L7.47255 31.3631C7.45466 31.3321 7.44524 31.297 7.44524 31.2612C7.44524 31.2254 7.45466 31.1903 7.47255 31.1593L8.69561 29.023L7.26871 27.2964C7.23873 27.26 7.22234 27.2142 7.22234 27.167C7.22234 27.1198 7.23873 27.074 7.26871 27.0376L9.77394 24.0125C9.79107 23.9918 9.81212 23.9746 9.83589 23.962C9.85966 23.9494 9.88568 23.9416 9.91246 23.939C9.93924 23.9365 9.96627 23.9392 9.99199 23.9471C10.0177 23.955 10.0416 23.9679 10.0624 23.985C10.0831 24.0021 10.1003 24.0232 10.1129 24.047C10.1255 24.0707 10.1333 24.0967 10.1359 24.1235C10.1384 24.1503 10.1357 24.1773 10.1278 24.2031C10.1199 24.2288 10.107 24.2527 10.0899 24.2735L7.71309 27.168L9.1196 28.8742C9.14681 28.9064 9.16339 28.9462 9.16704 28.9882C9.17069 29.0301 9.16124 29.0722 9.13999 29.1086L7.89654 31.2673L10.1225 35.4543C10.139 35.4853 10.1472 35.52 10.1464 35.5552C10.1455 35.5903 10.1355 35.6246 10.1175 35.6548C10.0994 35.6849 10.0739 35.7099 10.0433 35.7273C10.0128 35.7446 9.97827 35.7538 9.94313 35.7539L9.93294 35.7519Z" fill="#003D31"/>
<path d="M15.6507 35.7518C15.6173 35.7517 15.5844 35.7433 15.5549 35.7274C15.5074 35.7019 15.472 35.6586 15.4563 35.607C15.4407 35.5555 15.4461 35.4998 15.4714 35.4522L17.7014 31.2653L16.4539 29.1086C16.4328 29.0726 16.4233 29.0311 16.4266 28.9895C16.4298 28.948 16.4458 28.9084 16.4722 28.8762L17.8787 27.17L15.4938 24.2755C15.4766 24.2547 15.4638 24.2308 15.4559 24.2051C15.448 24.1794 15.4452 24.1523 15.4478 24.1255C15.4504 24.0988 15.4582 24.0727 15.4708 24.049C15.4834 24.0252 15.5005 24.0042 15.5213 23.987C15.542 23.9699 15.566 23.957 15.5917 23.9491C15.6174 23.9412 15.6444 23.9385 15.6712 23.9411C15.698 23.9436 15.724 23.9514 15.7478 23.964C15.7715 23.9766 15.7926 23.9938 15.8097 24.0145L18.3007 27.0416C18.3307 27.0781 18.3471 27.1238 18.3471 27.1711C18.3471 27.2183 18.3307 27.264 18.3007 27.3005L16.8738 29.0271L18.0969 31.1633C18.1147 31.1943 18.1242 31.2295 18.1242 31.2653C18.1242 31.301 18.1147 31.3362 18.0969 31.3672L15.8179 35.6479C15.8011 35.6779 15.7769 35.7032 15.7477 35.7214C15.7185 35.7396 15.6851 35.75 15.6507 35.7518Z" fill="#003D31"/>
<path d="M15.2981 24.1431C15.0168 25.4232 12.695 28.0283 12.695 28.0283C12.695 28.0283 10.3753 25.4232 10.094 24.1431H15.2981Z" fill="#FFC9B0"/>
<path d="M12.695 28.2321C12.6666 28.2321 12.6385 28.2261 12.6125 28.2145C12.5865 28.2029 12.5632 28.186 12.5442 28.1649C12.4463 28.0568 10.1837 25.5047 9.89421 24.1859C9.88778 24.1561 9.88811 24.1253 9.89516 24.0956C9.90222 24.066 9.91582 24.0383 9.93498 24.0146C9.95416 23.991 9.97841 23.9719 10.0059 23.9589C10.0334 23.9458 10.0635 23.9391 10.094 23.9392H15.2981C15.3286 23.9391 15.3586 23.9458 15.3862 23.9589C15.4137 23.9719 15.4379 23.991 15.4571 24.0146C15.4759 24.0385 15.4891 24.0662 15.4958 24.0959C15.5025 24.1255 15.5025 24.1562 15.4958 24.1859C15.2064 25.5047 12.9437 28.0589 12.8459 28.1649C12.8268 28.186 12.8035 28.2029 12.7776 28.2145C12.7516 28.2261 12.7235 28.2321 12.695 28.2321ZM10.3631 24.3469C10.7585 25.4191 12.2139 27.164 12.6909 27.7185C13.1679 27.164 14.6254 25.4191 15.0209 24.3469H10.3631Z" fill="#003D31"/>
<path d="M11.3823 24.7586V22.3002H13.9915V24.7586" fill="#FFC9B0"/>
<path d="M13.9915 24.9624C13.9374 24.9624 13.8855 24.9409 13.8473 24.9027C13.8091 24.8645 13.7876 24.8126 13.7876 24.7586V22.5041H11.5861V24.7586C11.5861 24.8126 11.5646 24.8645 11.5264 24.9027C11.4882 24.9409 11.4363 24.9624 11.3823 24.9624C11.3282 24.9624 11.2764 24.9409 11.2381 24.9027C11.1999 24.8645 11.1784 24.8126 11.1784 24.7586V22.3002C11.1784 22.2462 11.1999 22.1943 11.2381 22.1561C11.2764 22.1179 11.3282 22.0964 11.3823 22.0964H13.9915C14.0455 22.0964 14.0974 22.1179 14.1356 22.1561C14.1738 22.1943 14.1953 22.2462 14.1953 22.3002V24.7586C14.1953 24.8126 14.1738 24.8645 14.1356 24.9027C14.0974 24.9409 14.0455 24.9624 13.9915 24.9624Z" fill="#003D31"/>
<path d="M5.22824 17.7057C6.62873 17.7057 7.76405 16.7273 7.76405 15.5205C7.76405 14.3136 6.62873 13.3353 5.22824 13.3353C3.82775 13.3353 2.69243 14.3136 2.69243 15.5205C2.69243 16.7273 3.82775 17.7057 5.22824 17.7057Z" fill="#FFC9B0"/>
<path d="M5.22823 17.9095C3.71775 17.9095 2.48857 16.8373 2.48857 15.5205C2.48857 14.2036 3.71163 13.1314 5.22823 13.1314C6.74482 13.1314 7.96788 14.2036 7.96788 15.5205C7.96788 16.8373 6.7387 17.9095 5.22823 17.9095ZM5.22823 13.5391C3.94401 13.5391 2.89626 14.4279 2.89626 15.5205C2.89626 16.6131 3.94401 17.5018 5.22823 17.5018C6.51244 17.5018 7.56019 16.6131 7.56019 15.5205C7.56019 14.4279 6.51448 13.5391 5.22823 13.5391Z" fill="#003D31"/>
<path d="M20.0089 17.7057C21.4094 17.7057 22.5447 16.7273 22.5447 15.5205C22.5447 14.3136 21.4094 13.3353 20.0089 13.3353C18.6084 13.3353 17.4731 14.3136 17.4731 15.5205C17.4731 16.7273 18.6084 17.7057 20.0089 17.7057Z" fill="#FFC9B0"/>
<path d="M20.011 17.9095C18.5005 17.9095 17.2713 16.8373 17.2713 15.5205C17.2713 14.2036 18.4944 13.1314 20.011 13.1314C21.5275 13.1314 22.7486 14.2036 22.7486 15.5205C22.7486 16.8373 21.5194 17.9095 20.011 17.9095ZM20.011 13.5391C18.7247 13.5391 17.679 14.4279 17.679 15.5205C17.679 16.6131 18.7247 17.5018 20.011 17.5018C21.2972 17.5018 22.3409 16.6131 22.3409 15.5205C22.3409 14.4279 21.2952 13.5391 20.011 13.5391Z" fill="#003D31"/>
<path d="M17.3365 9.04025L14.8639 5.87048C14.8639 5.87048 14.3074 7.82738 13.965 9.04025H10.0654L9.14 6.18032L8.05963 9.01375H5.03459V15.0047C5.03432 16.009 5.2319 17.0035 5.61603 17.9314C6.00017 18.8593 6.56334 19.7024 7.27338 20.4127C7.98342 21.1229 8.82641 21.6863 9.75422 22.0707C10.682 22.4551 11.6765 22.6529 12.6808 22.6529C13.685 22.6529 14.6795 22.4551 15.6073 22.0707C16.5351 21.6863 17.3781 21.1229 18.0881 20.4127C18.7982 19.7024 19.3613 18.8593 19.7455 17.9314C20.1296 17.0035 20.3272 16.009 20.3269 15.0047V9.0484L17.3365 9.04025Z" fill="#FFC9B0"/>
<path d="M12.6869 22.8466C10.6054 22.8439 8.60996 22.0157 7.13833 20.5437C5.66669 19.0717 4.83901 17.076 4.83685 14.9945V9.00359C4.83708 8.95012 4.85831 8.89887 4.89597 8.8609C4.91485 8.84164 4.93736 8.82632 4.9622 8.81582C4.98705 8.80532 5.01373 8.79986 5.0407 8.79975H7.92508L8.95653 6.09679C8.97081 6.05744 8.99686 6.02343 9.03114 5.99941C9.06542 5.97538 9.10627 5.96249 9.14814 5.96249C9.19 5.96249 9.23085 5.97538 9.26513 5.99941C9.29941 6.02343 9.32547 6.05744 9.33975 6.09679L10.2142 8.79567H13.8121C14.1545 7.57261 14.6682 5.77268 14.6682 5.77268C14.6788 5.73678 14.699 5.70447 14.7267 5.67931C14.7544 5.65414 14.7884 5.63707 14.8252 5.62999C14.8626 5.62182 14.9016 5.62437 14.9377 5.63735C14.9737 5.65033 15.0054 5.67321 15.029 5.70337L17.4364 8.83644H20.3351C20.3891 8.83644 20.441 8.85792 20.4792 8.89615C20.5174 8.93437 20.5389 8.98622 20.5389 9.04028V14.9864C20.5389 17.0696 19.7119 19.0677 18.2396 20.5415C16.7673 22.0154 14.7701 22.8444 12.6869 22.8466ZM5.24454 9.20947V14.9945C5.22132 15.9863 5.3966 16.9726 5.76008 17.8956C6.12355 18.8187 6.66789 19.6597 7.36108 20.3693C8.05427 21.0789 8.88234 21.6428 9.79658 22.0277C10.7108 22.4127 11.6928 22.611 12.6848 22.611C13.6768 22.611 14.6588 22.4127 15.5731 22.0277C16.4873 21.6428 17.3154 21.0789 18.0086 20.3693C18.7018 19.6597 19.2461 18.8187 19.6096 17.8956C19.973 16.9726 20.1483 15.9863 20.1251 14.9945V9.25228H17.3324C17.3015 9.25245 17.2709 9.24556 17.243 9.23214C17.2151 9.21872 17.1906 9.19911 17.1714 9.17482L14.9454 6.32101L14.1566 9.10348C14.1442 9.14757 14.1174 9.18622 14.0804 9.21322C14.0435 9.24021 13.9985 9.25397 13.9527 9.25228H10.0532C10.01 9.25211 9.9679 9.23819 9.93309 9.21254C9.89828 9.18689 9.87252 9.15084 9.85955 9.10959L9.13999 6.79189L8.2655 9.08513C8.25104 9.12382 8.22518 9.15721 8.19132 9.18087C8.15747 9.20453 8.11722 9.21735 8.07592 9.21763L5.24454 9.20947Z" fill="#003D31"/>
<path d="M8.87498 15.2208C9.27464 15.2208 9.59863 14.8968 9.59863 14.4971C9.59863 14.0975 9.27464 13.7735 8.87498 13.7735C8.47532 13.7735 8.15134 14.0975 8.15134 14.4971C8.15134 14.8968 8.47532 15.2208 8.87498 15.2208Z" fill="#003D31"/>
<path d="M16.3357 15.2208C16.7353 15.2208 17.0593 14.8968 17.0593 14.4971C17.0593 14.0975 16.7353 13.7735 16.3357 13.7735C15.936 13.7735 15.612 14.0975 15.612 14.4971C15.612 14.8968 15.936 15.2208 16.3357 15.2208Z" fill="#003D31"/>
<path d="M12.6053 17.1328C12.3705 17.131 12.1361 17.1119 11.9041 17.0757C11.8777 17.071 11.8525 17.0612 11.83 17.0468C11.8074 17.0324 11.7879 17.0136 11.7726 16.9917C11.7572 16.9697 11.7464 16.945 11.7406 16.9188C11.7348 16.8926 11.7343 16.8656 11.739 16.8392C11.7437 16.8129 11.7535 16.7877 11.7679 16.7651C11.7823 16.7425 11.801 16.723 11.823 16.7077C11.845 16.6923 11.8697 16.6815 11.8959 16.6757C11.9221 16.67 11.9491 16.6694 11.9755 16.6741C12.338 16.7326 12.7076 16.7326 13.0701 16.6741C13.1333 16.4866 12.8663 15.6916 12.4586 14.9374C12.4454 14.9136 12.437 14.8875 12.4341 14.8605C12.4312 14.8335 12.4336 14.8061 12.4414 14.7801C12.4492 14.7541 12.4621 14.7298 12.4793 14.7089C12.4966 14.6879 12.5179 14.6706 12.5419 14.6579C12.566 14.6453 12.5923 14.6376 12.6194 14.6353C12.6465 14.6329 12.6737 14.6361 12.6996 14.6444C12.7254 14.6528 12.7493 14.6663 12.7699 14.684C12.7905 14.7018 12.8073 14.7235 12.8194 14.7478C13.0232 15.1249 13.6347 16.3908 13.4309 16.8555C13.4079 16.9064 13.3735 16.9512 13.3304 16.9865C13.2872 17.0219 13.2365 17.0468 13.1822 17.0594C12.9936 17.107 12.7999 17.1317 12.6053 17.1328Z" fill="#003D31"/>
<path d="M12.6869 19.5422C11.7284 19.5556 10.7713 19.4633 9.83305 19.267C9.80564 19.2621 9.77951 19.2517 9.75629 19.2364C9.73306 19.221 9.71322 19.2011 9.69799 19.1778C9.68276 19.1545 9.67246 19.1283 9.66774 19.1009C9.66301 19.0734 9.66396 19.0453 9.67051 19.0183C9.67706 18.9912 9.68909 18.9658 9.70585 18.9436C9.72261 18.9213 9.74374 18.9028 9.76794 18.889C9.79215 18.8753 9.81892 18.8666 9.84659 18.8636C9.87426 18.8606 9.90226 18.8633 9.92886 18.8715C10.8356 19.0566 11.7594 19.1448 12.6848 19.1345C13.5538 19.154 14.422 19.0664 15.2696 18.8736C15.2957 18.8646 15.3234 18.861 15.351 18.863C15.3786 18.8651 15.4055 18.8727 15.4301 18.8855C15.4546 18.8983 15.4763 18.9159 15.4938 18.9374C15.5113 18.9588 15.5243 18.9836 15.5319 19.0102C15.5395 19.0368 15.5416 19.0646 15.5381 19.0921C15.5346 19.1195 15.5256 19.146 15.5115 19.1698C15.4975 19.1937 15.4787 19.2144 15.4564 19.2308C15.4341 19.2471 15.4086 19.2587 15.3817 19.2649C15.3429 19.2772 14.3951 19.5422 12.6869 19.5422Z" fill="#003D31"/>
<path d="M10.1082 12.5157H6.75094C6.66498 12.5157 6.58255 12.4816 6.52176 12.4208C6.46098 12.36 6.42683 12.2776 6.42683 12.1916C6.42683 12.1056 6.46098 12.0232 6.52176 11.9624C6.58255 11.9016 6.66498 11.8675 6.75094 11.8675H10.1082C10.1942 11.8675 10.2766 11.9016 10.3374 11.9624C10.3982 12.0232 10.4324 12.1056 10.4324 12.1916C10.4324 12.2776 10.3982 12.36 10.3374 12.4208C10.2766 12.4816 10.1942 12.5157 10.1082 12.5157Z" fill="#003D31"/>
<path d="M18.4597 12.5157H15.1024C15.0164 12.5157 14.934 12.4816 14.8732 12.4208C14.8124 12.36 14.7783 12.2776 14.7783 12.1916C14.7783 12.1056 14.8124 12.0232 14.8732 11.9624C14.934 11.9016 15.0164 11.8675 15.1024 11.8675H18.4597C18.5457 11.8675 18.6281 11.9016 18.6889 11.9624C18.7497 12.0232 18.7838 12.1056 18.7838 12.1916C18.7838 12.2776 18.7497 12.36 18.6889 12.4208C18.6281 12.4816 18.5457 12.5157 18.4597 12.5157Z" fill="#003D31"/>
<path d="M11.686 29.3511C11.6572 29.3506 11.6289 29.3439 11.6029 29.3316C11.5769 29.3193 11.5538 29.3017 11.5351 29.2798C9.73317 27.1578 9.73317 27.0885 9.73317 26.9968C9.73352 26.9494 9.75033 26.9037 9.7807 26.8674C9.81107 26.8312 9.85312 26.8066 9.89963 26.7979C9.94614 26.7892 9.99423 26.797 10.0356 26.8199C10.077 26.8428 10.1092 26.8794 10.1266 26.9234C10.2224 27.0783 10.9725 27.9854 11.6941 28.8395L12.5442 27.8855C12.5813 27.8491 12.6309 27.8283 12.6828 27.8272C12.7348 27.8262 12.7852 27.845 12.8237 27.8799C12.8623 27.9148 12.886 27.9631 12.8901 28.0149C12.8942 28.0667 12.8784 28.1181 12.8459 28.1587L11.8266 29.2778C11.8093 29.2988 11.7879 29.3161 11.7637 29.3287C11.7396 29.3413 11.7131 29.3489 11.686 29.3511Z" fill="#003D31"/>
<path d="M13.6245 29.3511C13.5961 29.3511 13.568 29.3451 13.542 29.3335C13.516 29.3219 13.4928 29.305 13.4737 29.2839L12.4545 28.1648C12.4219 28.1242 12.4061 28.0728 12.4102 28.021C12.4143 27.9692 12.4381 27.9209 12.4766 27.886C12.5151 27.8511 12.5655 27.8323 12.6175 27.8333C12.6695 27.8344 12.7191 27.8552 12.7562 27.8916L13.6103 28.8395C14.3319 27.9854 15.082 27.0783 15.1778 26.9234C15.1952 26.8794 15.2274 26.8428 15.2688 26.8199C15.3102 26.797 15.3583 26.7892 15.4048 26.7979C15.4513 26.8066 15.4933 26.8312 15.5237 26.8674C15.5541 26.9037 15.5709 26.9494 15.5712 26.9968C15.5712 27.0885 15.5712 27.1578 13.7693 29.2798C13.7506 29.3017 13.7275 29.3193 13.7015 29.3316C13.6755 29.3439 13.6472 29.3506 13.6184 29.3511H13.6245Z" fill="#003D31"/>
<path d="M12.6869 40.0001C12.6328 40.0001 12.5809 39.9786 12.5427 39.9404C12.5045 39.9021 12.483 39.8503 12.483 39.7962V28.5461C12.483 28.4921 12.5045 28.4402 12.5427 28.402C12.5809 28.3638 12.6328 28.3423 12.6869 28.3423C12.7409 28.3423 12.7928 28.3638 12.831 28.402C12.8692 28.4402 12.8907 28.4921 12.8907 28.5461V39.7962C12.8907 39.8503 12.8692 39.9021 12.831 39.9404C12.7928 39.9786 12.7409 40.0001 12.6869 40.0001Z" fill="#003D31"/>
<path d="M6.51245 35.1485C6.45839 35.1485 6.40654 35.127 6.36831 35.0888C6.33009 35.0505 6.30861 34.9987 6.30861 34.9446V31.2754C6.30861 31.2214 6.33009 31.1695 6.36831 31.1313C6.40654 31.0931 6.45839 31.0716 6.51245 31.0716C6.56651 31.0716 6.61836 31.0931 6.65659 31.1313C6.69482 31.1695 6.7163 31.2214 6.7163 31.2754V34.9446C6.7163 34.9987 6.69482 35.0505 6.65659 35.0888C6.61836 35.127 6.56651 35.1485 6.51245 35.1485Z" fill="#003D31"/>
</svg>
